<svg width="45" height="35" viewBox="0 0 45 35" fill="none" xmlns="http://www.w3.org/2000/svg">
<path d="M0 22.7969C0 18.3269 1.13636 14.0805 3.40909 10.0575C5.77273 6.03448 8.86364 2.68199 12.6818 0L19.2273 5.09578C16.9545 6.43678 14.8182 8.31418 12.8182 10.728C10.9091 13.1418 9.77273 15.4662 9.40909 17.7012C9.77273 17.5223 10.5455 17.4329 11.7273 17.4329C14 17.4329 15.9091 18.2375 17.4545 19.8467C19 21.4559 19.7727 23.4674 19.7727 25.8812C19.7727 28.3844 18.8636 30.53 17.0455 32.318C15.2273 34.106 13.0455 35 10.5 35C7.59091 35 5.09091 33.9272 3 31.7816C1 29.5466 0 26.5517 0 22.7969ZM25.2273 22.7969C25.2273 18.3269 26.3636 14.0805 28.6364 10.0575C31 6.03448 34.0909 2.68199 37.9091 0L44.4545 5.09578C42.1818 6.43678 40.0455 8.31418 38.0455 10.728C36.1364 13.1418 35 15.4662 34.6364 17.7012C35 17.5223 35.7727 17.4329 36.9545 17.4329C39.2273 17.4329 41.1364 18.2375 42.6818 19.8467C44.2273 21.4559 45 23.4674 45 25.8812C45 28.3844 44.0909 30.53 42.2727 32.318C40.4545 34.106 38.2727 35 35.7273 35C32.8182 35 30.3182 33.9272 28.2273 31.7816C26.2273 29.5466 25.2273 26.5517 25.2273 22.7969Z" fill="#383838"/>
</svg>
