<svg width="24" height="24" viewBox="0 0 24 24" fill="none" xmlns="http://www.w3.org/2000/svg">
<path d="M6.84752 6C7.54254 6 8.16794 6.06018 8.74142 6.1829C9.31136 6.30444 9.79752 6.50504 10.2082 6.78234C10.6129 7.05964 10.9291 7.4278 11.1569 7.89036C11.3775 8.34701 11.4873 8.91813 11.4873 9.59309C11.4873 10.3247 11.3221 10.9359 10.9905 11.4233C10.6566 11.9118 10.1645 12.3118 9.50842 12.621C10.4017 12.8794 11.0637 13.3313 11.5026 13.9732C11.9439 14.6211 12.1599 15.3963 12.1599 16.3049C12.1599 17.0424 12.0195 17.6761 11.7374 18.2082C11.4657 18.7325 11.0714 19.1834 10.5881 19.5228C10.0875 19.8714 9.52837 20.1271 8.9373 20.278C8.31758 20.4406 7.6794 20.5223 7.03868 20.521H0V6H6.84752ZM6.43334 11.8669C6.99974 11.8669 7.46938 11.7324 7.8399 11.4598C8.20806 11.1908 8.38624 10.7471 8.38624 10.1394C8.38624 9.80195 8.32606 9.52347 8.20806 9.30517C8.09309 9.09515 7.92295 8.92053 7.716 8.80013C7.49939 8.67166 7.26032 8.58557 7.01154 8.54643C6.74037 8.49586 6.46492 8.47175 6.18908 8.47445H3.19779V11.8669H6.43334ZM6.61152 18.0489C6.92658 18.0489 7.2263 18.0218 7.50832 17.9581C7.7927 17.8967 8.04522 17.7976 8.25998 17.6501C8.47474 17.5085 8.65174 17.3162 8.77918 17.0707C8.9078 16.8277 8.97034 16.5102 8.97034 16.1291C8.97034 15.381 8.75912 14.8488 8.3414 14.5267C7.9225 14.2081 7.36082 14.0499 6.67288 14.0499H3.19779V18.0501H6.61152V18.0489ZM16.7182 18.0006C17.1513 18.423 17.7755 18.6354 18.5873 18.6354C19.1691 18.6354 19.6717 18.4879 20.0954 18.1953C20.5131 17.9014 20.768 17.5876 20.8659 17.2631H23.4088C23.0005 18.528 22.381 19.4319 21.5338 19.9759C20.6971 20.5222 19.6788 20.7936 18.4894 20.7936C17.661 20.7936 16.9153 20.6603 16.2474 20.396C15.6063 20.1463 15.027 19.7606 14.5494 19.2655C14.0796 18.7589 13.7164 18.163 13.4815 17.5132C13.2232 16.7947 13.0953 16.0359 13.1039 15.2724C13.1039 14.4865 13.2348 13.7514 13.4921 13.0729C13.7363 12.417 14.1112 11.8177 14.5942 11.3112C15.0721 10.8156 15.6385 10.425 16.2981 10.1382C16.9918 9.84653 17.7381 9.70111 18.4906 9.71109C19.3803 9.71109 20.1579 9.88337 20.8258 10.2303C21.4734 10.5615 22.035 11.039 22.466 11.625C22.8943 12.2068 23.1999 12.8735 23.3899 13.6204C23.5799 14.3662 23.646 15.145 23.5917 15.9604H16.0031C16.0043 16.7911 16.284 17.5781 16.7182 18.0006ZM20.0364 12.477C19.693 12.097 19.1124 11.8917 18.4021 11.8917C17.9407 11.8917 17.5595 11.9684 17.2527 12.1265C16.9722 12.2682 16.7233 12.4653 16.5211 12.7059C16.3436 12.9244 16.2119 13.1764 16.1341 13.447C16.066 13.6726 16.0221 13.9047 16.0031 14.1396H20.7019C20.6334 13.4033 20.3809 12.8593 20.0364 12.477ZM15.4131 6.97468H21.3001V8.40837H15.4131V6.97468Z" fill="white"/>
</svg>
