<svg width="276" height="55" viewBox="0 0 276 55" fill="none" xmlns="http://www.w3.org/2000/svg">
<path d="M66.5672 7.73229L68.8282 8.41828C68.6766 9.05461 68.4375 9.58643 68.1106 10.0127C67.7838 10.44 67.3797 10.7618 66.8951 10.9791C66.4105 11.1954 65.795 11.304 65.0465 11.304C64.1392 11.304 63.3979 11.1726 62.8216 10.9077C62.2463 10.6428 61.7504 10.1772 61.3328 9.5109C60.9153 8.84457 60.707 7.992 60.707 6.95214C60.707 5.56568 61.0741 4.50099 61.8092 3.75603C62.5443 3.01106 63.5835 2.63857 64.9269 2.63857C65.9796 2.63857 66.8064 2.85172 67.4075 3.27904C68.0096 3.70533 68.456 4.36131 68.7488 5.24493L66.4713 5.75399C66.3909 5.49842 66.3074 5.31115 66.2208 5.19319C66.0754 4.99557 65.8991 4.84347 65.6909 4.73586C65.4816 4.62929 65.2486 4.57652 64.9898 4.57652C64.4063 4.57652 63.9578 4.81243 63.6454 5.28528C63.4103 5.635 63.2928 6.18545 63.2928 6.93456C63.2928 7.86266 63.433 8.50002 63.7145 8.84457C63.9939 9.18912 64.3898 9.36088 64.8991 9.36088C65.3929 9.36088 65.7651 9.22223 66.0187 8.9439C66.2703 8.66661 66.4538 8.26205 66.5672 7.73229Z" fill="#D1D1D1"/>
<path d="M70.4805 2.78294H77.3954V4.5719H73.0662V5.90457H77.082V7.61385H73.0662V9.26623H77.5201V11.1638H70.4805V2.78294Z" fill="#D1D1D1"/>
<path d="M78.7393 2.78294H86.5821V4.85127H83.951V11.1628H81.3704V4.85127H78.7393V2.78294Z" fill="#D1D1D1"/>
<path d="M90.7521 6.01114H92.1296C93.3946 6.01114 94.3328 6.23566 94.9432 6.68264C95.5545 7.13066 95.8607 7.82596 95.8607 8.77269C95.8607 9.54663 95.5803 10.1374 95.0205 10.5472C94.4606 10.9569 93.6565 11.1618 92.6079 11.1618H88.1777V2.78294H90.7521V6.01114ZM90.7521 9.36039H92.0739C92.8822 9.36039 93.2863 9.06758 93.2863 8.47988C93.2863 7.96461 92.8822 7.70801 92.0739 7.70801H90.7521V9.36039Z" fill="#D1D1D1"/>
<path d="M101.459 2.78294H104.852L106.161 7.88184L107.46 2.78294H110.851V11.1628H108.739V4.77263L107.111 11.1628H105.198L103.574 4.77263V11.1628H101.461V2.78294H101.459Z" fill="#D1D1D1"/>
<path d="M118.032 9.78047H115.103L114.696 11.1628H112.062L115.2 2.78294H118.015L121.152 11.1628H118.451L118.032 9.78047ZM117.497 7.96668L116.575 4.95473L115.663 7.96668H117.497Z" fill="#D1D1D1"/>
<path d="M128.999 4.83988H124.96V11.1618H122.386V2.78294H128.999V4.83988Z" fill="#D1D1D1"/>
<path d="M135.715 9.78047H132.787L132.378 11.1628H129.744L132.882 2.78294H135.697L138.833 11.1628H136.131L135.715 9.78047ZM135.181 7.96668L134.258 4.95473L133.346 7.96668H135.181Z" fill="#D1D1D1"/>
<path d="M145.298 6.60769C146.301 6.87774 146.802 7.50993 146.802 8.50529C146.802 9.32476 146.487 9.99523 145.86 10.5198C145.23 11.0434 144.342 11.3051 143.198 11.3051C141.237 11.3051 140.02 10.4805 139.547 8.83018L141.982 8.64704C142.12 9.2306 142.509 9.52134 143.151 9.52134C143.508 9.52134 143.776 9.43236 143.96 9.25336C144.146 9.07436 144.239 8.82397 144.239 8.50426C144.239 8.19592 144.126 7.9445 143.89 7.75205C143.657 7.5596 143.344 7.46337 142.94 7.46337H142.238V5.96516H142.789C143.121 5.96516 143.379 5.87928 143.567 5.70545C143.757 5.53266 143.85 5.29158 143.85 4.98221C143.85 4.52903 143.567 4.3014 143.001 4.3014C142.418 4.3014 142.077 4.56214 141.982 5.08465L139.676 4.81563C140.051 3.36398 141.176 2.63763 143.048 2.63763C144.085 2.63763 144.897 2.8394 145.484 3.24396C146.074 3.64748 146.368 4.19069 146.368 4.87254C146.368 5.69821 146.014 6.2766 145.298 6.60769Z" fill="#D1D1D1"/>
<path d="M156.489 2.78294V11.1628H154.062V6.56055L150.939 11.1628H148.506V2.78294H150.935V7.4183L154.076 2.78294H156.489Z" fill="#D1D1D1"/>
<path d="M158.637 2.78294H161.216V5.71419H164.034V2.78294H166.627V11.1628H164.034V7.7732H161.216V11.1628H158.637V2.78294Z" fill="#D1D1D1"/>
<path d="M168.418 6.97695C168.418 5.6091 168.796 4.54338 169.556 3.78186C170.317 3.0193 171.375 2.63854 172.73 2.63854C174.119 2.63854 175.191 3.0131 175.941 3.7622C176.693 4.51131 177.069 5.55944 177.069 6.90866C177.069 7.8885 176.906 8.69141 176.576 9.31842C176.246 9.94544 175.774 10.4328 175.15 10.7815C174.529 11.1301 173.755 11.304 172.831 11.304C171.888 11.304 171.109 11.1539 170.491 10.8528C169.873 10.5518 169.374 10.0758 168.991 9.42396C168.608 8.77211 168.418 7.95575 168.418 6.97695ZM170.999 6.98833C170.999 7.83366 171.154 8.44205 171.467 8.81143C171.782 9.18081 172.209 9.36602 172.745 9.36602C173.301 9.36602 173.73 9.18495 174.034 8.82281C174.338 8.46067 174.487 7.8109 174.487 6.87348C174.487 6.08505 174.332 5.5077 174.012 5.14453C173.696 4.78033 173.265 4.59822 172.721 4.59822C172.202 4.59822 171.783 4.78343 171.469 5.15281C171.154 5.52322 170.999 6.13472 170.999 6.98833Z" fill="#D1D1D1"/>
<path d="M178.893 2.78294H183.723C184.528 2.78294 185.147 2.98264 185.578 3.38306C186.01 3.78348 186.225 4.27909 186.225 4.86885C186.225 5.36446 186.072 5.78972 185.764 6.14358C185.559 6.38052 185.259 6.56676 184.864 6.70437C185.464 6.85026 185.905 7.09858 186.187 7.45141C186.469 7.8032 186.612 8.24708 186.612 8.77994C186.612 9.21347 186.51 9.60457 186.312 9.95119C186.109 10.2978 185.831 10.573 185.483 10.7748C185.267 10.9 184.94 10.991 184.505 11.049C183.924 11.1256 183.538 11.1638 183.348 11.1638H178.896V2.78294H178.893ZM181.496 6.06908H182.621C183.022 6.06908 183.303 5.99976 183.459 5.86008C183.618 5.72143 183.696 5.51967 183.696 5.25686C183.696 5.01267 183.618 4.82229 183.459 4.68468C183.304 4.54707 183.028 4.47878 182.637 4.47878H181.498L181.496 6.06908ZM181.496 9.36039H182.81C183.256 9.36039 183.568 9.28175 183.75 9.12345C183.934 8.96514 184.025 8.75303 184.025 8.48609C184.025 8.2388 183.934 8.03911 183.753 7.88908C183.572 7.73802 183.258 7.66248 182.805 7.66248H181.495V9.36039H181.496Z" fill="#D1D1D1"/>
<path d="M193.554 5.4681H195.333L193.757 8.10963L195.333 10.7563H193.554L191.737 8.11274L193.554 5.4681ZM196.506 5.4681H198.288L196.71 8.11274L198.288 10.7563H196.506L194.692 8.10963L196.506 5.4681Z" fill="#D1D1D1"/>
<path d="M199.061 2.78294H201.865L203.015 6.23463L204.158 2.78294H206.783L204.042 9.25278C203.819 9.7753 203.622 10.1643 203.458 10.4209C203.291 10.6786 203.041 10.8896 202.713 11.0552C202.387 11.2207 201.934 11.3035 201.36 11.3035C201.056 11.3035 200.536 11.2601 199.795 11.1731V9.4411C200.232 9.48559 200.549 9.50835 200.751 9.50835C201.345 9.50835 201.708 9.28589 201.837 8.83995L199.061 2.78294Z" fill="#D1D1D1"/>
<path d="M220.521 12.9849H218.44V11.1618H213.11V12.9849H211.035V9.23002H211.895C212.379 7.87666 212.618 6.35051 212.618 4.65157V2.78294H219.617V9.23002H220.519L220.521 12.9849ZM217.042 9.23002V4.83988H214.966V4.94852C214.966 6.10633 214.773 7.53418 214.38 9.23002H217.042Z" fill="#D1D1D1"/>
<path d="M221.616 6.97695C221.616 5.6091 221.997 4.54338 222.754 3.78186C223.512 3.0193 224.571 2.63854 225.926 2.63854C227.316 2.63854 228.387 3.0131 229.136 3.7622C229.889 4.51131 230.267 5.55944 230.267 6.90866C230.267 7.8885 230.102 8.69141 229.773 9.31842C229.444 9.94544 228.97 10.4328 228.35 10.7815C227.729 11.1301 226.956 11.304 226.03 11.304C225.088 11.304 224.306 11.1539 223.69 10.8528C223.073 10.5518 222.572 10.0758 222.189 9.42396C221.806 8.77211 221.616 7.95575 221.616 6.97695ZM224.196 6.98833C224.196 7.83366 224.351 8.44205 224.667 8.81143C224.979 9.18081 225.406 9.36602 225.944 9.36602C226.498 9.36602 226.927 9.18495 227.231 8.82281C227.535 8.46067 227.685 7.8109 227.685 6.87348C227.685 6.08505 227.529 5.5077 227.209 5.14453C226.893 4.78033 226.462 4.59822 225.919 4.59822C225.399 4.59822 224.983 4.78343 224.666 5.15281C224.354 5.52322 224.196 6.13472 224.196 6.98833Z" fill="#D1D1D1"/>
<path d="M232.048 2.78294H235.441L236.751 7.88184L238.052 2.78294H241.441V11.1628H239.329V4.77263L237.702 11.1628H235.789L234.162 4.77263V11.1628H232.05L232.048 2.78294Z" fill="#D1D1D1"/>
<path d="M248.615 9.78047H245.685L245.277 11.1628H242.643L245.78 2.78294H248.595L251.732 11.1628H249.03L248.615 9.78047ZM248.078 7.96668L247.155 4.95473L246.243 7.96668H248.078Z" fill="#D1D1D1"/>
<path d="M256.198 8.10963L254.384 10.7563H252.602L254.18 8.11274L252.602 5.4681H254.384L256.198 8.10963ZM259.153 8.11274L257.336 10.7563H255.558L257.135 8.10963L255.558 5.4681H257.336L259.153 8.11274Z" fill="#D1D1D1"/>
<path d="M27.9084 0.0650022C12.8506 0.0650022 0.568359 12.3901 0.568359 27.5005C0.568359 42.6099 12.8506 54.935 27.9084 54.935C42.9651 54.935 55.2464 42.6099 55.2464 27.5005C55.2464 12.3901 42.9641 0.0650022 27.9084 0.0650022ZM43.5631 39.5638C42.2733 41.3424 40.8072 42.5665 39.1483 43.2193C37.5029 43.8764 35.1491 44.1982 32.0973 44.1982H14.7013V9.98343H42.2589V16.1915H22.143V22.0002H32.0984C34.8542 22.0002 37.1276 22.3385 38.936 23.0111C40.7464 23.6815 42.2929 24.9304 43.5754 26.7504C44.858 28.5652 45.5003 30.6956 45.5003 33.1323C45.5003 35.6362 44.857 37.779 43.5631 39.5638Z" fill="#D1D1D1"/>
<path d="M35.9341 29.3808C34.7567 28.6193 32.7618 28.2354 29.9513 28.2127H22.1445V37.9955H29.3852C29.5801 37.9955 29.7657 37.9955 29.9513 37.9893C31.9679 37.9759 33.402 37.8641 34.2588 37.6603C35.2032 37.4275 36.0197 36.9143 36.7125 36.1083C37.4074 35.2981 37.758 34.3059 37.759 33.1315C37.759 31.415 37.1538 30.1661 35.9341 29.3808Z" fill="#D1D1D1"/>
<path d="M78.2631 37.2006C77.1743 38.5178 75.8083 39.181 74.17 39.181C74.0999 39.181 74.0349 39.181 73.9659 39.181C72.3379 39.1261 70.9584 38.3988 69.8192 37.0164C68.6304 35.5896 68.0314 33.3609 68.0314 30.3552C68.0314 27.7281 68.5995 25.7488 69.7388 24.413C70.8688 23.0907 72.2761 22.4264 73.9669 22.4058H74.0422C75.6979 22.4058 77.0846 23.0886 78.2095 24.4461C79.3333 25.8088 79.9013 27.8926 79.9013 30.709C79.9003 33.7117 79.3497 35.8855 78.2631 37.2006ZM83.6325 20.4575C81.3365 17.7549 77.4455 16.5091 73.9659 16.6685C71.1646 16.7937 68.6305 17.8304 67.4242 19.7539V17.4114H60.833V54.4342H67.8923V42.1422C69.4687 43.836 71.6564 44.7206 73.9648 44.8934C77.4661 45.1531 81.255 43.777 83.6109 41.0838C85.7904 38.6067 86.876 35.1271 86.876 30.6552C86.876 26.2982 85.743 22.9417 83.6325 20.4575Z" fill="#D1D1D1"/>
<path d="M93.6113 17.4126H100.398V34.2437L111.262 17.4126H118.2V44.1994H111.408V27.0754L100.398 44.1994H93.6113V17.4126Z" fill="#D1D1D1"/>
<path d="M150.031 25.3344L143.062 26.5915C142.836 25.1968 142.299 24.1435 141.469 23.4409C140.632 22.7311 139.565 22.3793 138.236 22.3793C136.473 22.3793 135.074 22.9929 134.025 24.2076C132.98 25.4296 132.457 27.471 132.457 30.3298C132.457 33.5032 132.987 35.7505 134.052 37.0635C135.115 38.3755 136.544 39.0273 138.337 39.0273C139.68 39.0273 140.774 38.6476 141.631 37.8819C142.489 37.1163 143.087 35.796 143.442 33.9367L150.388 35.1183C149.659 38.3154 148.271 40.7387 146.231 42.3631C144.191 43.9979 141.447 44.8101 138.007 44.8101C134.104 44.8101 130.989 43.5778 128.672 41.106C126.345 38.6321 125.19 35.2052 125.19 30.8296C125.19 26.4115 126.354 22.965 128.681 20.5066C131.017 18.0306 134.165 16.7993 138.138 16.7993C141.391 16.7993 143.972 17.505 145.897 18.907C147.81 20.3121 149.19 22.458 150.031 25.3344Z" fill="#D1D1D1"/>
<path d="M153.962 17.4126H178.118V23.1364H169.572V44.1994H162.508V23.1364H153.962V17.4126Z" fill="#D1D1D1"/>
<path d="M200.197 36.9135C198.953 38.3186 197.406 39.0294 195.564 39.0294H195.547C193.715 39.0263 192.165 38.3175 190.914 36.9135C189.647 35.496 189.023 33.467 189.023 30.8058C189.023 28.1487 189.646 26.1104 190.914 24.696C192.165 23.2888 193.715 22.5821 195.547 22.5821H195.564C197.406 22.5821 198.953 23.2847 200.197 24.696C201.448 26.1114 202.078 28.1342 202.078 30.752C202.078 33.4442 201.448 35.496 200.197 36.9135ZM205.466 20.7539C202.886 18.1196 199.576 16.7993 195.547 16.7993H195.538C192.918 16.7993 190.552 17.3829 188.43 18.549C186.311 19.7026 184.672 21.3861 183.511 23.5847C182.366 25.7917 181.774 28.0721 181.774 30.4209C181.774 33.5032 182.364 36.1157 183.511 38.2596C184.673 40.4045 186.363 42.032 188.585 43.1443C190.798 44.2514 193.111 44.8029 195.547 44.807H195.587C199.545 44.807 202.825 43.4775 205.433 40.8101C208.032 38.1385 209.334 34.782 209.334 30.7364C209.334 26.7126 208.05 23.385 205.466 20.7539Z" fill="#D1D1D1"/>
<path d="M217.236 17.4126H240.898V44.1994H233.863V23.1623H224.236V35.1946C224.236 38.2624 223.882 40.4062 223.177 41.6447C222.471 42.8791 221.694 43.6862 220.835 44.0762C219.987 44.4622 218.61 44.6588 216.719 44.6588C215.593 44.6588 214.103 44.5067 212.261 44.1994V38.9867C212.424 38.9867 212.812 38.998 213.444 39.0291C214.181 39.0808 214.75 39.1036 215.154 39.1036C216.106 39.1036 216.7 38.7963 216.914 38.1569C217.135 37.5247 217.236 35.774 217.236 32.8965V17.4126Z" fill="#D1D1D1"/>
<path d="M267.556 38.7001C266.978 39.3716 265.661 39.712 263.599 39.712H257.009V32.8965H261.619C262.008 32.8965 262.371 32.9038 262.719 32.9131C264.68 32.9783 266.085 33.2204 266.926 33.6291C267.925 34.1195 268.43 35.0125 268.43 36.3058C268.433 37.2298 268.14 38.0296 267.556 38.7001ZM274.234 31.7491C273.246 30.4133 272.01 29.5463 270.518 29.1448C269.028 28.7371 266.885 28.5395 264.108 28.5395H257.012V17.4126H249.948V44.1994H265.113C268.646 44.1994 271.299 43.5486 273.07 42.2511C274.834 40.9474 275.717 38.996 275.717 36.4124C275.717 34.641 275.222 33.0849 274.234 31.7491Z" fill="#D1D1D1"/>
</svg>
