<svg width="245" height="61" viewBox="0 0 245 61" fill="none" xmlns="http://www.w3.org/2000/svg">
<path d="M60.2044 30.5011C60.2101 35.8891 58.7751 41.1799 56.0491 45.8208C56.0491 45.8208 45.5634 49.5355 30.1 49.5355C14.6371 49.5355 4.15097 45.8208 4.15097 45.8208C1.80622 41.8151 0.412673 37.3205 0.0786348 32.6861C-0.255589 28.0519 0.47859 23.4026 2.22414 19.0994C3.96988 14.7963 6.67977 10.9551 10.1437 7.87446C13.6074 4.79379 17.7317 2.55636 22.1964 1.33621C26.6611 0.115968 31.3458 -0.0542797 35.8866 0.838666C40.4274 1.73161 44.7022 3.66367 48.3786 6.48496C52.0551 9.30625 55.0344 12.9405 57.0853 17.1056C59.136 21.2706 60.2031 25.8545 60.2033 30.501L60.2044 30.5011Z" fill="#D1D1D1"/>
<path d="M43.5862 33.8971C43.5862 33.6752 43.4984 33.4625 43.3424 33.3056C43.1861 33.1488 42.9742 33.0607 42.7533 33.0607H41.1163V12.5328C41.1163 12.311 41.0285 12.0982 40.8724 11.9414C40.7162 11.7845 40.5043 11.6964 40.2834 11.6964H25.1291H23.8269C23.4556 11.6846 23.0845 11.7271 22.7253 11.8225C22.4257 11.8976 22.1569 12.0646 21.9563 12.3004C21.7463 12.5973 21.643 12.9569 21.6632 13.3204V15.533C21.6632 16.2705 21.6523 17.0751 21.6302 17.9469C21.606 18.8119 21.553 23.1396 21.4693 24.0424C21.3856 24.9451 21.2645 25.8412 21.1059 26.7283C20.954 27.5846 20.7366 28.428 20.4559 29.2506C20.1978 30.0159 19.854 30.7493 19.4314 31.4367C19.1281 31.9291 18.7572 32.3761 18.3297 32.7642C18.1301 32.9427 17.884 33.0602 17.6201 33.1027C17.3924 33.1371 17.1741 33.2184 16.9791 33.3417C16.7278 33.5098 16.6045 33.866 16.6045 34.4125V41.7937C16.6045 42.0155 16.6923 42.2282 16.8484 42.3849C17.0046 42.5419 17.2165 42.63 17.4374 42.63H22.322C22.5429 42.63 22.7548 42.5419 22.911 42.3849C23.0671 42.2282 23.1549 42.0155 23.1549 41.7937V38.3952H36.9851V41.7937C36.9851 42.0155 37.0728 42.2282 37.2291 42.3849C37.3852 42.5419 37.597 42.63 37.8179 42.63H42.7491C42.97 42.63 43.1818 42.5419 43.3379 42.3849C43.4942 42.2282 43.582 42.0155 43.582 41.7937V33.917L43.5862 33.8971ZM34.5637 33.0607H25.2678C25.7872 32.2885 26.1923 31.4449 26.4708 30.5561C26.7901 29.5773 27.0397 28.5769 27.2178 27.5624C27.3985 26.5388 27.527 25.5366 27.6035 24.5555C27.6783 23.5777 27.7157 19.2809 27.7157 18.553V17.0817H34.5637V33.0607Z" fill="white"/>
<path d="M5.52734 47.9484C8.30519 51.8969 11.9863 55.1179 16.2612 57.3412C20.5361 59.5645 25.28 60.7248 30.0943 60.7248C34.9084 60.7248 39.6524 59.5645 43.9273 57.3412C48.2022 55.1179 51.8833 51.8969 54.6613 47.9484C54.6613 47.9484 42.4902 52.1345 30.0899 52.1345C17.6896 52.1345 5.52771 47.9484 5.52771 47.9484H5.52734Z" fill="#D1D1D1"/>
<path d="M30.0988 52.1345C42.4989 52.1345 54.6702 47.9484 54.6702 47.9484C54.6702 47.9484 44.3478 56.3206 29.9173 56.3206C15.4868 56.3206 5.52734 47.9484 5.52734 47.9484C5.52734 47.9484 17.6962 52.1345 30.0988 52.1345Z" fill="#D1D1D1"/>
<path d="M114.527 38.1962H112.387V11.4698C112.387 11.4698 112.387 11.4698 112.387 11.4559C112.387 11.1672 112.273 10.8904 112.069 10.6861C111.865 10.4818 111.588 10.3668 111.299 10.3663H91.4903C90.8926 10.3663 90.3308 10.3663 89.7889 10.3503C89.2994 10.3348 88.8103 10.3898 88.3365 10.5137C87.9452 10.6125 87.5939 10.8295 87.3304 11.1352C87.086 11.4326 86.9632 11.8875 86.9619 12.4997V15.3721C86.9619 16.3429 86.9466 17.39 86.916 18.5135C86.8861 19.6389 86.8184 25.2722 86.7168 26.4475C86.6152 27.6228 86.4498 28.7881 86.2407 29.9434C86.0415 31.0596 85.7578 32.159 85.392 33.2322C85.0551 34.2281 84.606 35.1825 84.0532 36.0768C83.6471 36.7366 83.1471 37.3338 82.5689 37.8496C82.3335 38.0585 82.0418 38.1936 81.7302 38.238C81.4159 38.2784 81.1141 38.3865 80.8456 38.5548C80.5162 38.7739 80.3522 39.2387 80.3535 39.9492V49.5425C80.3535 49.5425 80.3535 49.5425 80.3535 49.5565C80.3535 49.8451 80.4681 50.122 80.672 50.3262C80.8759 50.5305 81.1526 50.6456 81.4413 50.6461H87.8285C87.9715 50.6461 88.1131 50.6179 88.2452 50.5631C88.3773 50.5083 88.4973 50.428 88.5984 50.3268C88.6994 50.2256 88.7795 50.1055 88.834 49.9733C88.8886 49.8411 88.9165 49.6995 88.9163 49.5565V49.5425V45.1283H106.992V49.5366V49.5505C106.992 49.6935 107.02 49.8351 107.074 49.9673C107.129 50.0995 107.209 50.2197 107.31 50.3209C107.411 50.4221 107.531 50.5024 107.663 50.5571C107.795 50.6119 107.937 50.6401 108.08 50.6401H114.525C114.668 50.6401 114.81 50.6119 114.942 50.5572C115.074 50.5024 115.194 50.4222 115.295 50.321C115.397 50.2198 115.477 50.0997 115.532 49.9675C115.586 49.8353 115.615 49.6936 115.615 49.5505C115.615 49.5505 115.615 49.5505 115.615 49.5366V39.2978C115.615 39.2978 115.615 39.2978 115.615 39.2838C115.614 38.9952 115.499 38.7186 115.295 38.5147C115.09 38.3107 114.813 38.1962 114.525 38.1962H114.527ZM103.822 38.1962H91.6696C92.3483 37.1919 92.8771 36.0941 93.2395 34.9373C93.6579 33.6632 93.9861 32.3612 94.2217 31.041C94.4581 29.713 94.6261 28.4096 94.7257 27.1308C94.8253 25.8559 94.8731 20.2644 94.8731 19.3162V17.39H103.822V38.1962Z" fill="#D1D1D1"/>
<path d="M171.59 25.757L182.604 13.5151C182.772 13.3271 182.882 13.0955 182.92 12.8481C182.958 12.6006 182.922 12.3478 182.817 12.1197C182.712 11.8916 182.542 11.6979 182.328 11.5617C182.114 11.4256 181.864 11.3528 181.609 11.352H174.831C174.64 11.3519 174.451 11.3923 174.277 11.4705C174.103 11.5487 173.949 11.6628 173.824 11.8049L162.203 25.0488V12.6533C162.203 12.4823 162.169 12.313 162.103 12.155C162.036 11.997 161.938 11.8534 161.815 11.7325C161.691 11.6117 161.545 11.5158 161.383 11.4505C161.222 11.3852 161.049 11.3517 160.875 11.352H155.226C155.052 11.352 154.879 11.3856 154.718 11.4511C154.557 11.5165 154.41 11.6124 154.287 11.7332C154.164 11.8541 154.066 11.9976 154 12.1555C153.933 12.3133 153.899 12.4825 153.899 12.6533V44.3042C153.899 44.475 153.933 44.6442 154 44.802C154.066 44.9599 154.164 45.1034 154.287 45.2243C154.41 45.3451 154.557 45.441 154.718 45.5064C154.879 45.5719 155.052 45.6055 155.226 45.6055H160.881C161.055 45.6058 161.228 45.5723 161.389 45.507C161.551 45.4417 161.697 45.3458 161.82 45.2249C161.944 45.104 162.042 44.9605 162.108 44.8025C162.175 44.6445 162.209 44.4751 162.209 44.3042V35.4865L165.918 31.4826L174.232 44.9779C174.35 45.1694 174.517 45.3278 174.717 45.4377C174.916 45.5477 175.141 45.6055 175.37 45.6055H181.787C182.024 45.6056 182.256 45.5436 182.461 45.426C182.665 45.3084 182.833 45.1394 182.948 44.9365C183.063 44.7337 183.121 44.5044 183.115 44.2724C183.11 44.0404 183.041 43.8141 182.915 43.617L171.59 25.7666V25.757Z" fill="#D1D1D1"/>
<path d="M210.664 36.6129C210.465 36.4939 210.238 36.4267 210.005 36.4178C209.772 36.4088 209.54 36.4584 209.332 36.5618C206.473 37.9901 203.306 38.7278 200.096 38.7133C194.063 38.7133 189.669 34.4064 189.669 28.4711C189.669 22.4414 194.014 18.2289 200.235 18.2289C203.251 18.2289 206.145 18.9487 209.101 20.4256C209.308 20.5294 209.54 20.5796 209.772 20.5713C210.005 20.563 210.232 20.4965 210.431 20.3782C210.63 20.2598 210.795 20.0936 210.909 19.8954C211.024 19.6971 211.085 19.4734 211.086 19.2457V13.9751C211.086 13.7392 211.022 13.5075 210.9 13.3037C210.779 13.0999 210.604 12.9312 210.394 12.8148C209.349 12.2366 205.509 10.3447 200.003 10.3447C189.222 10.3447 181.1 18.1404 181.1 28.479C181.1 38.8175 189.17 46.6132 199.875 46.6132C206.077 46.6132 210.185 44.4362 210.634 44.1884C210.843 44.0717 211.018 43.9026 211.139 43.6984C211.26 43.4942 211.324 43.2622 211.323 43.0261V37.7496C211.324 37.5214 211.264 37.2969 211.15 37.0978C211.036 36.8988 210.871 36.7318 210.672 36.6129H210.664Z" fill="#D1D1D1"/>
<path d="M120.99 10.8371H126.628C126.985 10.8376 127.327 10.979 127.58 11.2303C127.832 11.4816 127.974 11.8223 127.975 12.1777V29.4854L146.369 10.7501C146.494 10.6217 146.644 10.5197 146.809 10.45C146.975 10.3804 147.153 10.3446 147.332 10.3447H147.513C147.69 10.3447 147.865 10.3794 148.029 10.4469C148.192 10.5144 148.341 10.6134 148.466 10.7381C148.591 10.8628 148.69 11.0108 148.758 11.1737C148.825 11.3366 148.86 11.5111 148.86 11.6873V44.7841C148.86 44.9603 148.825 45.1347 148.758 45.2975C148.69 45.4602 148.591 45.6081 148.466 45.7327C148.341 45.8572 148.192 45.956 148.029 46.0233C147.865 46.0905 147.69 46.125 147.513 46.1248H141.872C141.514 46.1248 141.172 45.9835 140.919 45.7321C140.667 45.4807 140.525 45.1397 140.525 44.7841V27.4329L122.091 46.2177C121.965 46.344 121.815 46.4441 121.649 46.512C121.484 46.5799 121.306 46.6143 121.127 46.6132H120.99C120.813 46.6134 120.638 46.5789 120.475 46.5117C120.311 46.4444 120.163 46.3456 120.037 46.2211C119.912 46.0966 119.813 45.9487 119.746 45.7859C119.678 45.6231 119.643 45.4487 119.644 45.2725V12.1777C119.644 11.8221 119.785 11.4811 120.038 11.2297C120.291 10.9783 120.633 10.8371 120.99 10.8371Z" fill="#D1D1D1"/>
<path d="M216.699 10.8371H222.34C222.697 10.8371 223.04 10.9783 223.293 11.2297C223.545 11.4811 223.687 11.8221 223.687 12.1777V29.4854L242.076 10.7501C242.201 10.622 242.351 10.5202 242.517 10.4506C242.682 10.381 242.86 10.345 243.039 10.3447H243.222C243.399 10.3447 243.574 10.3794 243.738 10.4469C243.901 10.5144 244.05 10.6134 244.175 10.7381C244.3 10.8628 244.399 11.0108 244.467 11.1737C244.534 11.3366 244.569 11.5111 244.569 11.6873V44.7841C244.569 44.9602 244.534 45.1347 244.467 45.2975C244.399 45.4602 244.3 45.6081 244.175 45.7327C244.05 45.8572 243.901 45.956 243.738 46.0232C243.574 46.0905 243.399 46.125 243.222 46.1248H237.579C237.402 46.1248 237.227 46.0901 237.064 46.0227C236.901 45.9553 236.752 45.8565 236.628 45.732C236.503 45.6075 236.404 45.4597 236.336 45.297C236.269 45.1344 236.234 44.9601 236.234 44.7841V27.4329L217.8 46.2177C217.674 46.3442 217.524 46.4443 217.358 46.5123C217.193 46.5802 217.015 46.6145 216.836 46.6132H216.699C216.342 46.6132 216 46.4719 215.747 46.2205C215.494 45.9691 215.353 45.6281 215.353 45.2725V12.1777C215.353 11.8223 215.495 11.4816 215.748 11.2303C216 10.979 216.342 10.8376 216.699 10.8371Z" fill="#D1D1D1"/>
</svg>
