<svg width="12" height="8" viewBox="0 0 12 8" fill="none" xmlns="http://www.w3.org/2000/svg">
<path fill-rule="evenodd" clip-rule="evenodd" d="M0.135578 0.146894C0.178446 0.10033 0.229372 0.0633873 0.285438 0.0381808C0.341503 0.0129744 0.401608 0 0.462309 0C0.52301 0 0.583115 0.0129744 0.639181 0.0381808C0.695247 0.0633873 0.746172 0.10033 0.78904 0.146894L6.00012 5.79389L11.2112 0.146894C11.2541 0.100406 11.305 0.0635292 11.3611 0.0383701C11.4172 0.013211 11.4773 0.000261784 11.5379 0.000261784C11.5986 0.000261784 11.6587 0.013211 11.7148 0.0383701C11.7708 0.0635292 11.8218 0.100406 11.8647 0.146894C11.9076 0.193381 11.9416 0.248571 11.9648 0.30931C11.988 0.370049 12 0.43515 12 0.500894C12 0.566637 11.988 0.631738 11.9648 0.692477C11.9416 0.753217 11.9076 0.808406 11.8647 0.854894L6.32685 6.85489C6.28398 6.90146 6.23306 6.9384 6.17699 6.96361C6.12093 6.98881 6.06082 7.00179 6.00012 7.00179C5.93942 7.00179 5.87932 6.98881 5.82325 6.96361C5.76718 6.9384 5.71626 6.90146 5.67339 6.85489L0.135578 0.854894C0.092602 0.808448 0.0585049 0.753272 0.0352401 0.692527C0.0119754 0.631782 0 0.566661 0 0.500894C0 0.435126 0.0119754 0.370005 0.0352401 0.30926C0.0585049 0.248515 0.092602 0.193339 0.135578 0.146894Z" fill="#1F1F1F"/>
</svg>
