<svg width="24" height="24" viewBox="0 0 24 24" fill="none" xmlns="http://www.w3.org/2000/svg">
<path d="M8.99932 6.99996L15.4993 13.5C15.8971 13.8978 16.1206 14.4374 16.1206 15C16.1206 15.5626 15.8971 16.1021 15.4993 16.5C15.1015 16.8978 14.5619 17.1213 13.9993 17.1213C13.4367 17.1213 12.8971 16.8978 12.4993 16.5L5.99932 9.99996C5.20367 9.20432 4.75668 8.12518 4.75668 6.99996C4.75668 5.87475 5.20367 4.79561 5.99932 3.99996C6.79497 3.20432 7.8741 2.75732 8.99932 2.75732C10.1245 2.75732 11.2037 3.20432 11.9993 3.99996L18.4993 10.5C19.6928 11.6934 20.3633 13.3121 20.3633 15C20.3633 16.6878 19.6928 18.3065 18.4993 19.5C17.3058 20.6934 15.6871 21.3639 13.9993 21.3639C12.3115 21.3639 10.6928 20.6934 9.49932 19.5L2.99932 13" stroke="#1F1F1F" stroke-width="1.5" stroke-linecap="round" stroke-linejoin="round"/>
</svg>
