<svg width="123" height="36" viewBox="0 0 123 36" fill="none" xmlns="http://www.w3.org/2000/svg">
<path d="M19.6043 5.84497L15.7067 9.69703C15.2461 10.1523 14.498 10.1523 14.0364 9.69703L13.0975 8.76903C12.9823 8.65522 12.9823 8.4704 13.0975 8.35659L15.6388 5.84497C16.0994 5.38875 16.0994 4.64947 15.6388 4.19422L13.0975 1.6826C12.9823 1.56879 12.9823 1.38397 13.0975 1.27016L14.0364 0.342162C14.498 -0.114054 15.2461 -0.114054 15.7067 0.342162L19.6043 4.19422C20.0659 4.64947 20.0659 5.38875 19.6043 5.84497Z" fill="#6645EA"/>
<path d="M19.6043 18.8257L15.7067 22.6777C15.2461 23.133 14.498 23.133 14.0364 22.6777L13.0975 21.7497C12.9823 21.6359 12.9823 21.4511 13.0975 21.3373L15.6388 18.8257C16.0994 18.3695 16.0994 17.6302 15.6388 17.1749L13.0975 14.6633C12.9823 14.5495 12.9823 14.3647 13.0975 14.2509L14.0364 13.3229C14.498 12.8667 15.2461 12.8667 15.7067 13.3229L19.6043 17.1749C20.0659 17.6302 20.0659 18.3695 19.6043 18.8257Z" fill="#6645EA"/>
<path d="M29.6667 5.84497L25.7692 9.69703C25.3086 10.1523 24.5605 10.1523 24.0989 9.69703L23.16 8.76903C23.0448 8.65522 23.0448 8.4704 23.16 8.35659L25.7013 5.84497C26.1619 5.38875 26.1619 4.64947 25.7013 4.19422L23.16 1.6826C23.0448 1.56879 23.0448 1.38397 23.16 1.27016L24.0989 0.342162C24.5605 -0.114054 25.3086 -0.114054 25.7692 0.342162L29.6667 4.19422C30.1284 4.64947 30.1284 5.38875 29.6667 5.84497Z" fill="#6645EA"/>
<path d="M4.20378 9.69632L0.342942 5.84454C-0.114314 5.38836 -0.114314 4.6501 0.342942 4.19392L4.20378 0.342137C4.66103 -0.114046 5.40103 -0.114046 5.85828 0.342137L9.71912 4.19392C10.1764 4.6501 10.1764 5.38836 9.71912 5.84454L5.85828 9.69632C5.402 10.1525 4.66103 10.1525 4.20378 9.69632Z" fill="#6645EA"/>
<path d="M4.20378 22.677L0.342942 18.8253C-0.114314 18.3691 -0.114314 17.6308 0.342942 17.1746L4.20378 13.3229C4.66103 12.8667 5.40103 12.8667 5.85828 13.3229L9.71912 17.1746C10.1764 17.6308 10.1764 18.3691 9.71912 18.8253L5.85828 22.677C5.402 23.1332 4.66103 23.1332 4.20378 22.677Z" fill="#6645EA"/>
<path d="M4.20378 35.6637L0.342942 31.8783C-0.114314 31.43 -0.114314 30.7044 0.342942 30.2561L4.20378 26.4708C4.66103 26.0224 5.40103 26.0224 5.85828 26.4708L9.71912 30.2561C10.1764 30.7044 10.1764 31.43 9.71912 31.8783L5.85828 35.6637C5.402 36.112 4.66103 36.112 4.20378 35.6637Z" fill="#6645EA"/>
<path fill-rule="evenodd" clip-rule="evenodd" d="M109.37 17.6538C108.414 17.6538 107.873 18.6399 108.427 19.3727L112.889 25.2691L107.442 32.4547C107.303 32.6378 107.439 32.8846 107.678 32.8846L111.575 32.8846C111.675 32.8846 111.769 32.839 111.826 32.7629L115.196 28.3178L118.559 32.7627C118.617 32.8389 118.711 32.8845 118.81 32.8845H122.708C122.947 32.8845 123.083 32.638 122.944 32.4548L117.507 25.269L121.976 19.3735C122.531 18.6408 121.99 17.6538 121.033 17.6538L119.297 17.6538C118.899 17.6538 118.523 17.8362 118.292 18.1404L115.2 22.2203L112.113 18.1411C111.883 17.8365 111.506 17.6538 111.108 17.6538L109.37 17.6538Z" fill="white"/>
<path d="M84.8336 11.1809C84.8336 10.55 85.3462 10.0386 85.9786 10.0386H87.5053C88.1376 10.0386 88.6503 10.55 88.6503 11.1809V32.5992C88.6503 32.7569 88.5221 32.8847 88.364 32.8847H85.1199C84.9618 32.8847 84.8336 32.7569 84.8336 32.5992V11.1809Z" fill="white"/>
<path fill-rule="evenodd" clip-rule="evenodd" d="M79.0017 13.8463H79.1952H80.5497C81.1909 13.8463 81.7107 13.3348 81.7107 12.704V11.1809C81.7107 10.55 81.1909 10.0386 80.5497 10.0386H78.0342C77.9683 10.0386 77.9036 10.044 77.8407 10.0544V10.0386C75.7033 10.0386 73.9707 11.7433 73.9707 13.8463V17.654H72.8097C72.1685 17.654 71.6487 18.1654 71.6487 18.7963V20.3193C71.6487 20.8854 72.0671 21.3552 72.6162 21.4459V21.4617H72.8097C73.4509 21.4617 73.9707 21.9731 73.9707 22.604V22.6992V32.5992C73.9707 32.7569 74.1006 32.8847 74.2609 32.8847H77.5504C77.7107 32.8847 77.8407 32.7569 77.8407 32.5992V22.6992V22.604C77.8407 21.9731 78.3605 21.4617 79.0017 21.4617H79.1952H80.5497C81.1909 21.4617 81.7107 20.9502 81.7107 20.3193V18.7963C81.7107 18.1654 81.1909 17.654 80.5497 17.654H77.8407V15.0838V14.9886C77.8407 14.3577 78.3605 13.8463 79.0017 13.8463Z" fill="white"/>
<path d="M64.5363 18.7961C64.5363 18.1652 65.0489 17.6538 65.6812 17.6538H67.2079C67.8403 17.6538 68.3529 18.1652 68.3529 18.7961V32.599C68.3529 32.7567 68.2247 32.8846 68.0666 32.8846H64.8225C64.6644 32.8846 64.5363 32.7567 64.5363 32.599V18.7961Z" fill="white"/>
<path d="M65.6259 10.2994C66.076 9.85036 66.8058 9.85036 67.2559 10.2994L68.003 11.0447C68.4531 11.4938 68.4531 12.2218 68.003 12.6709L67.2559 13.4162C66.8058 13.8653 66.076 13.8653 65.6259 13.4162L64.8789 12.6709C64.4287 12.2218 64.4287 11.4938 64.8788 11.0447L65.6259 10.2994Z" fill="#6645EA"/>
<path fill-rule="evenodd" clip-rule="evenodd" d="M99.2329 29.2766C100.656 29.2766 101.506 28.8666 102.151 28.423C102.239 28.3623 102.353 28.3525 102.449 28.4002L104.84 29.5931C105.124 29.7345 105.241 30.081 105.051 30.3341C104.065 31.6479 101.869 32.7115 99.2329 32.7115C95.1129 32.7115 91.7731 29.3795 91.7731 25.2692C91.7731 21.1589 95.1129 17.8269 99.2329 17.8269C103.353 17.8269 106.693 21.1589 106.693 25.2692C106.693 25.643 106.665 26.0103 106.612 26.3692C106.591 26.5061 106.472 26.605 106.333 26.605H95.4333L95.5504 26.8722C96.17 28.2872 97.7027 29.2766 99.2329 29.2766ZM95.5504 23.6662L95.4333 23.9334H103.032L102.915 23.6662C102.296 22.2512 100.88 21.2618 99.2329 21.2618C97.5854 21.2618 96.17 22.2512 95.5504 23.6662Z" fill="white"/>
<path fill-rule="evenodd" clip-rule="evenodd" d="M50.3798 10.0386C51.0121 10.0386 51.5247 10.55 51.5247 11.1809V12.704C51.5247 13.3348 51.0121 13.8463 50.3798 13.8463H43.8915L41.4106 13.8463H41.2198H41.2196C41.2194 13.8463 41.2192 13.8463 41.219 13.8463C40.587 13.8467 40.0748 14.358 40.0748 14.9886V15.0838V19.5578L46.5631 19.5578C47.1955 19.5578 47.7081 20.0692 47.7081 20.7001V22.2232C47.7081 22.8541 47.1955 23.3655 46.5631 23.3655H41.4106H41.2198C40.5875 23.3655 40.0748 23.8769 40.0748 24.5078V24.603V32.5992C40.0748 32.7569 39.9467 32.8847 39.7886 32.8847H36.5444C36.3863 32.8847 36.2582 32.7569 36.2582 32.5992V22.2232V20.7001V13.9415C36.2582 13.9094 36.2595 13.8777 36.2621 13.8463H36.2582C36.2582 11.7433 37.9669 10.0386 40.0748 10.0386C40.1577 10.0386 40.2401 10.0412 40.3217 10.0464C40.3659 10.0412 40.4109 10.0386 40.4565 10.0386L50.3798 10.0386Z" fill="white"/>
<path fill-rule="evenodd" clip-rule="evenodd" d="M61.5869 18.6057V20.5096C61.5869 21.035 61.1612 21.4615 60.6366 21.4615H59.3061C59.3061 21.4615 59.295 21.4612 59.274 21.4616C57.1871 21.4763 55.4998 23.1754 55.4998 25.2692V26.1259H55.5004C55.5 26.1574 55.4998 26.1892 55.4998 26.2211V32.599C55.4998 32.7567 55.3722 32.8846 55.2147 32.8846H51.9835C51.826 32.8846 51.6984 32.7567 51.6984 32.599V20.0336C51.6984 18.719 52.7618 17.6538 54.0743 17.6538H55.4998V19.0817C56.4445 17.7899 58.3034 17.6538 58.8736 17.6538H60.6366C61.1612 17.6538 61.5869 18.0803 61.5869 18.6057Z" fill="white"/>
</svg>
