<svg width="24" height="24" viewBox="0 0 24 24" fill="none" xmlns="http://www.w3.org/2000/svg">
<path d="M7.02943 21H3.29764V8.98243H7.02943V21ZM5.16129 7.34314C3.96814 7.34314 3 6.35443 3 5.16129C3 4.58808 3.22771 4.03835 3.63303 3.63303C4.03835 3.22771 4.58808 3 5.16129 3C5.73449 3 6.28423 3.22771 6.68955 3.63303C7.09487 4.03835 7.32257 4.58808 7.32257 5.16129C7.32257 6.35443 6.35443 7.34314 5.16129 7.34314ZM20.9961 21H17.2727V15.15C17.2727 13.7556 17.2444 11.9679 15.3326 11.9679C13.3924 11.9679 13.0948 13.4824 13.0948 15.0497V21H9.36686V8.98243H12.9456V10.6217H12.9977C13.4959 9.67736 14.7129 8.68093 16.5283 8.68093C20.3051 8.68093 20.9994 11.1681 20.9994 14.3985V21H20.9961Z" fill="white"/>
</svg>
