<svg width="52" height="13" viewBox="0 0 52 13" fill="none" xmlns="http://www.w3.org/2000/svg">
<g clip-path="url(#clip0)">
<path d="M33.4359 6.7114H33.8319L33.5808 7.60563H31.3009L31.552 6.7114H31.8515V2.49026H31.5037V1.48065H33.2621L33.3876 2.19218C33.7644 1.77872 34.17 1.37488 34.9431 1.37488C35.9767 1.37488 36.4888 1.92295 36.4888 3.2018V4.35563C36.4888 5.67295 35.6965 6.22101 34.7208 6.22101C34.1895 6.22101 33.7257 5.93256 33.4359 5.68256V6.7114ZM34.885 4.23064V3.43256C34.885 2.7114 34.6917 2.49987 34.2765 2.49987C33.9384 2.49987 33.6774 2.69217 33.4359 2.96142V4.94218C33.687 5.11525 33.8514 5.22102 34.1604 5.22102C34.6146 5.23063 34.885 4.93256 34.885 4.23064Z" fill="#1F1F1F"/>
<path d="M3.72911 0.999997V5.29806H3.37167V6.19229H5.88352V5.29806H5.45842V0.980767H5.88352V0H0V0.980767H0.434742V5.29806H0V6.19229H2.51185V5.29806H2.15439V0.999997H3.72911Z" fill="#1F1F1F"/>
<path d="M10.7335 3.48083V4.22122C10.7335 5.702 9.79634 6.29813 8.41482 6.29813C7.09128 6.29813 6.08655 5.702 6.08655 4.30776V3.49045C6.08655 2.02892 7.10094 1.44238 8.41482 1.44238C9.79634 1.44238 10.7335 2.02892 10.7335 3.48083ZM9.13939 4.42314V3.37507C9.13939 2.7116 8.89788 2.40392 8.41482 2.40392C7.92212 2.40392 7.67092 2.70199 7.67092 3.37507V4.42314C7.67092 5.10583 7.92212 5.3366 8.41482 5.3366C8.89788 5.32698 9.13939 5.06737 9.13939 4.42314Z" fill="#1F1F1F"/>
<path d="M46.3921 3.03854V5.29814H46.7686V6.18275H44.9814L44.856 5.70199C44.5854 6.00968 44.141 6.28852 43.5131 6.28852C42.6146 6.28852 42.0736 5.77892 42.0736 4.95199V4.83661C42.0736 3.88469 42.7112 3.60583 44.3052 3.32699L44.8077 3.24046V3.02892C44.8077 2.57699 44.6145 2.3943 44.0733 2.3943C43.8029 2.3943 43.6676 2.43276 43.5323 2.48084V2.98085H42.3151V1.86546C42.8174 1.62507 43.4936 1.44238 44.3148 1.44238C45.8509 1.44238 46.3921 2.00969 46.3921 3.03854ZM44.7978 5.0866V4.0193L44.3631 4.09623C43.6772 4.21161 43.571 4.36545 43.571 4.79815C43.571 5.14429 43.6772 5.35583 44.1216 5.35583C44.4114 5.34621 44.6529 5.22122 44.7978 5.0866Z" fill="#1F1F1F"/>
<path d="M21.0799 9.74038V12H21.4567V12.8846H19.6694L19.5438 12.4038C19.2733 12.7115 18.8289 12.9904 18.2009 12.9904C17.3025 12.9904 16.7615 12.4808 16.7615 11.6538V11.5385C16.7615 10.5865 17.3991 10.3077 18.9931 10.0288L19.4955 9.9423V9.73077C19.4955 9.27884 19.3023 9.09615 18.7613 9.09615C18.4908 9.09615 18.3555 9.13461 18.2203 9.18268V9.67308H17.003V8.55768C17.5054 8.3173 18.1816 8.125 19.0028 8.125C20.5389 8.13462 21.0799 8.70193 21.0799 9.74038ZM19.4859 11.7788V10.7115L19.0511 10.7885C18.3652 10.9038 18.2589 11.0577 18.2589 11.4904C18.2589 11.8365 18.3652 12.0384 18.8096 12.0384C19.0994 12.0384 19.3409 11.9134 19.4859 11.7788Z" fill="#1F1F1F"/>
<path d="M41.8418 9.74038V12H42.2186V12.8846H40.4311L40.3057 12.4038C40.0351 12.7115 39.5907 12.9904 38.9628 12.9904C38.0547 12.9904 37.5233 12.4808 37.5233 11.6538V11.5385C37.5233 10.5865 38.1609 10.3077 39.7549 10.0288L40.2574 9.9423V9.73077C40.2574 9.27884 40.0738 9.09615 39.523 9.09615C39.2526 9.09615 39.1173 9.13461 38.982 9.18268V9.67308H37.7648V8.55768C38.2671 8.3173 38.8179 8.125 39.6487 8.125C41.1848 8.13462 41.8418 8.70193 41.8418 9.74038ZM40.2478 11.7788V10.7115L39.8128 10.7885C39.1269 10.9038 39.0207 11.0577 39.0207 11.4904C39.0207 11.8365 39.1269 12.0384 39.5713 12.0384C39.8611 12.0384 40.1026 11.9134 40.2478 11.7788Z" fill="#1F1F1F"/>
<path d="M6.78191 6.69226V7.68266H6.34718V11.9903H6.78191V12.8846H4.23145V11.9903H4.71448V8.68266L3.65178 11.6634H2.79196L1.68095 8.68266V11.9903H2.13501V12.8846H0.0289307V11.9903H0.463673V7.68266H0.0289307V6.69226H2.37654L3.39094 9.49035L4.42466 6.69226H6.78191Z" fill="#1F1F1F"/>
<path d="M11.3811 9.9999V10.9037H8.56973V11.0384C8.56973 11.7884 8.86921 12.0191 9.49718 12.0191C9.77734 12.0191 10.0382 11.9807 10.1831 11.9134V11.4134H11.3811V12.4903C11.0043 12.7307 10.4053 12.9903 9.45854 12.9903C7.89346 12.9903 6.995 12.3557 6.995 10.9518V10.173C6.995 8.96144 7.70991 8.13452 9.26532 8.13452C10.7628 8.13452 11.3811 8.72107 11.3811 9.9999ZM8.57939 10.0864H9.96089V9.88452C9.96089 9.24028 9.76768 9.07683 9.29431 9.07683C8.84989 9.07683 8.57939 9.28836 8.57939 9.92298V10.0864Z" fill="#1F1F1F"/>
<path d="M31.7841 11.9904V9.24999H32.0932V8.25H29.7938V9.24999H30.2094V11.3558C29.9774 11.5865 29.678 11.8173 29.3207 11.8173C29.0114 11.8173 28.8761 11.6538 28.8761 11.2404V9.24999H29.2916V8.25H27.0115V9.24999H27.3015V11.4904C27.3015 12.5769 27.8038 13 28.6829 13C29.3399 13 29.852 12.6346 30.248 12.1827L30.3735 12.8846H32.1706V11.9904H31.7841Z" fill="#1F1F1F"/>
<path d="M26.5198 11.9904V8.25H24.5779V9.24999H24.9354V10.0865H23.8147V8.25H21.8632V9.24999H22.2303V11.9904H21.9211V12.8846H24.1431V11.9904H23.8147V10.9038H24.9354V11.9904H24.6262V12.8846H26.8483V11.9904H26.5198Z" fill="#1F1F1F"/>
<path d="M35.5619 10.2308L36.5181 9.26922H37.0881V8.25962H36.8466H35.9096H35.2334V9.01923L34.5377 9.80769L34.528 9.85577V8.25H32.5863V9.24999H32.9533V11.9904H32.6442V12.8846H34.8662V11.9904H34.528V11.0769L35.3009 12.0096H35.3105V12.8942H37.1268V12.0096L35.5619 10.2308Z" fill="#1F1F1F"/>
<path d="M35.8615 12.8941H37.2719V11.9902H37.1269" fill="#1F1F1F"/>
<path d="M41.503 5.28833V1.49988H39.5514V2.50949H39.9186V3.37487H38.7882V1.49988H36.8464V2.50949H37.2134V5.28833H36.8947V6.17294H39.1263V5.28833H38.7882V4.2018H39.9186V5.28833H39.6093V6.17294H41.8313V5.28833H41.503Z" fill="#1F1F1F"/>
<path d="M15.6119 5.29794V1.49988H10.936V2.4518H11.3708V5.29794H10.936V6.18255H13.274V5.29794H12.9165V2.46141H14.0662V5.29794H13.7087V6.18255H16.0467V5.29794H15.6119Z" fill="#1F1F1F"/>
<path d="M20.0948 1.49036L19.0321 4.25958L18.9838 4.67303L18.9452 4.25958L17.8052 1.49997H16.0952V2.50959H16.5686L18.066 6.14419L18.5684 6.13458L18.2689 6.24996L18.2109 6.43265C18.1433 6.67302 18.0371 6.88458 17.6796 6.74997V6.22111H16.5299V7.24995C16.7715 7.65381 17.4188 7.82688 17.7859 7.82688C18.2689 7.82688 19.1384 7.70189 19.3703 7.04804L21.1189 2.49997H21.4764V1.49036H20.0948Z" fill="#1F1F1F"/>
<path d="M51.5406 5.29812L51.5213 2.68274V2.44235H51.8982V1.55774H50.1109C50.1109 1.55774 49.396 1.55774 48.7681 1.55774C47.8599 1.55774 47.3769 2.04812 47.3769 2.87504V2.98081C47.3769 3.64427 47.8308 4.03849 48.6135 4.21159L48.2076 4.31735L47.6763 5.30773H47.2029V6.19235H48.7101V6.18273H48.7584L49.763 4.32697H49.7824H49.9369V5.30773H49.6567V6.19235H51.9561V5.30773H51.5406V5.29812ZM49.8403 3.64427C49.1641 3.65389 48.8743 3.37505 48.8743 2.94234C48.8743 2.5962 49 2.36543 49.222 2.27889C49.4443 2.19235 49.6471 2.25005 49.9273 2.25005V3.63466L49.8403 3.64427Z" fill="#1F1F1F"/>
<path d="M30.683 5.29794L30.6638 2.69218V2.38449H31.0403V1.49988H29.2531C29.2531 1.49988 28.5382 1.49988 27.9102 1.49988C27.0119 1.49988 26.519 1.99026 26.519 2.81717V2.93255C26.519 3.57679 26.9442 3.96142 27.6783 4.1441L27.7266 4.21141L27.2631 4.32679L26.7317 5.31717H26.2583V6.20178H27.7557V6.19217H27.804L28.8475 4.27872H28.9246H29.0794V5.31717H28.7992V6.20178H31.1081V5.31717H30.683V5.29794ZM28.9828 3.5864C28.3063 3.59602 28.0164 3.31718 28.0164 2.88448C28.0164 2.53833 28.1421 2.30757 28.3644 2.22103C28.5865 2.13449 28.7895 2.19218 29.0695 2.19218V3.57679L28.9828 3.5864Z" fill="#1F1F1F"/>
<path d="M25.4466 5.28852L24.1425 1.48083H24.1039H23.9783H23.5532H23.1571H22.79H21.9591V2.49046H22.3939L21.2829 5.29814H20.8481V6.19237H22.7513V5.29814H22.5098L23.2247 3.44238L23.8623 5.28852H23.4663V6.17314H25.7752V5.28852H25.4466Z" fill="#1F1F1F"/>
<path d="M16.3852 9.26913V8.25952H14.994L14.2308 9.50953L13.2647 8.25952H11.7866V9.26913H12.1441L13.0039 10.3941L13.3807 10.4326L13.0715 10.5576L12.2407 12.0095H11.8542V12.8941H13.0425L13.8444 11.4999L14.9264 12.8941H16.3852V12.0095H16.2017L15.0327 10.5288L14.7622 10.4326L15.0037 10.3557L15.7089 9.26913H16.3852Z" fill="#1F1F1F"/>
</g>
<defs>
<clipPath id="clip0">
<rect width="52" height="13" fill="white"/>
</clipPath>
</defs>
</svg>
