<svg width="103" height="22" viewBox="0 0 103 22" fill="none" xmlns="http://www.w3.org/2000/svg">
<path d="M24.1726 17.999H24.6488L25.4029 19.999H25.6808V20.799H25.2442V20.439H23.5772V20.799H23.1406V19.999H23.4185L24.1726 17.999ZM24.4107 18.639L23.8947 19.999H24.9267L24.4107 18.639Z" fill="#0A5783"/>
<path d="M27.0693 20.4386V18.0386H27.4265C27.6647 18.0386 27.8234 18.0386 27.9028 18.0786C28.0616 18.1186 28.141 18.1986 28.26 18.2786C28.3394 18.3986 28.3791 18.5186 28.3791 18.6386C28.3791 18.7186 28.3791 18.7986 28.3394 18.8786C28.2997 18.9586 28.2203 19.0386 28.141 19.0786C28.2997 19.1586 28.3791 19.2386 28.4585 19.3186C28.5378 19.4386 28.5775 19.5586 28.5775 19.6786C28.5775 19.7986 28.5378 19.9186 28.4585 20.0386C28.3791 20.1586 28.2997 20.2386 28.1806 20.2786C28.0616 20.3186 27.9028 20.3586 27.7441 20.3586H27.0693V20.4386ZM27.5456 18.4386V18.9586H27.6647C27.7837 18.9586 27.8631 18.9186 27.9028 18.8786C27.9425 18.8386 27.9822 18.7586 27.9822 18.6786C27.9822 18.5986 27.9425 18.5586 27.9028 18.5186C27.8631 18.4786 27.7837 18.4386 27.6647 18.4386H27.5456ZM27.5456 19.3586V19.9586H27.6647C27.8631 19.9586 27.9822 19.9186 28.0616 19.8786C28.141 19.8386 28.141 19.7586 28.141 19.6786C28.141 19.5586 28.1013 19.4786 28.0219 19.4386C27.9425 19.3586 27.8234 19.3586 27.625 19.3586H27.5456Z" fill="#0A5783"/>
<path d="M31.8323 17.999V20.399H31.3957V18.879L30.4828 20.399H30.0859V17.999H30.5225V19.559L31.4354 17.999H31.8323Z" fill="#0A5783"/>
<path d="M33.46 17.999H34.6506V18.439H33.8965V20.399H33.46V17.999Z" fill="#0A5783"/>
<path d="M36.8334 17.999H37.3097L38.2225 20.399H37.7463L37.5478 19.919H36.5556L36.3571 20.399H35.8809L36.8334 17.999ZM37.0715 18.639L36.754 19.479H37.3891L37.0715 18.639Z" fill="#0A5783"/>
<path d="M39.6514 17.999H40.9611V18.439H40.088V18.879H40.9611V19.319H40.088V19.959H40.9611V20.399H39.6514V17.999Z" fill="#0A5783"/>
<path d="M42.7081 17.999H43.1447L43.7003 19.679L44.256 17.999H44.6925L45.0894 20.399H44.6528L44.4147 18.879L43.8988 20.399H43.5019L42.9859 18.879L42.7081 20.399H42.2715L42.7081 17.999Z" fill="#0A5783"/>
<path d="M51.2014 17.999V20.399H50.7648V18.879L49.852 20.399H49.4551V17.999H49.8917V19.559L50.8045 17.999H51.2014Z" fill="#0A5783"/>
<path d="M52.8291 17.999H53.3054V18.919H54.0992V17.999H54.5754V20.399H54.0992V19.359H53.3054V20.399H52.8291V17.999Z" fill="#0A5783"/>
<path d="M55.9245 17.999H57.2342V18.439H56.7976V20.399H56.3214V18.439H55.8848V17.999H55.9245Z" fill="#0A5783"/>
<path d="M58.6631 17.999H59.9728V18.439H59.0997V18.879H59.9728V19.319H59.0997V19.959H59.9728V20.399H58.6631V17.999Z" fill="#0A5783"/>
<path d="M61.4805 17.999H61.9567C62.2346 17.999 62.3933 18.039 62.5124 18.079C62.6315 18.119 62.7108 18.199 62.7902 18.319C62.8696 18.439 62.9093 18.559 62.9093 18.719C62.9093 18.879 62.8696 19.039 62.7902 19.159C62.7108 19.279 62.5918 19.359 62.433 19.399C62.3536 19.439 62.1949 19.439 61.9567 19.439V20.479H61.5202V17.999H61.4805ZM61.9567 18.959H62.1155C62.2346 18.959 62.3139 18.959 62.3536 18.919C62.3933 18.919 62.433 18.879 62.4727 18.839C62.5124 18.799 62.5124 18.759 62.5124 18.719C62.5124 18.639 62.4727 18.559 62.3933 18.519C62.3536 18.479 62.2346 18.479 62.1155 18.479H61.9964V18.959H61.9567Z" fill="#0A5783"/>
<path d="M64.418 17.999H64.8942V18.919H65.688V17.999H66.1643V20.399H65.688V19.359H64.8942V20.399H64.418V17.999Z" fill="#0A5783"/>
<path d="M67.791 17.999H69.1008V18.439H68.2276V18.879H69.1008V19.319H68.2276V19.959H69.1008V20.399H67.791V17.999Z" fill="#0A5783"/>
<path d="M70.3711 17.999H71.6808V18.439H71.2443V20.399H70.768V18.439H70.3711V17.999Z" fill="#0A5783"/>
<path d="M73.2285 18.8789H74.4192V19.4389H73.2285V18.8789Z" fill="#0A5783"/>
<path d="M76.4039 17.999H77.7137V18.439H77.2771V20.399H76.8008V18.439H76.3643V17.999H76.4039Z" fill="#0A5783"/>
<path d="M80.2535 17.959C80.6107 17.959 80.8885 18.079 81.1266 18.319C81.3648 18.559 81.4838 18.879 81.4838 19.239C81.4838 19.599 81.3648 19.879 81.1266 20.119C80.8885 20.359 80.6107 20.479 80.2535 20.479C79.8963 20.479 79.5787 20.359 79.3406 20.119C79.1025 19.879 78.9834 19.559 78.9834 19.239C78.9834 18.999 79.0231 18.799 79.1422 18.599C79.2612 18.399 79.42 18.239 79.6184 18.119C79.8566 17.999 80.055 17.959 80.2535 17.959ZM80.2535 18.399C80.0153 18.399 79.8566 18.479 79.6978 18.639C79.5391 18.799 79.4597 18.999 79.4597 19.239C79.4597 19.519 79.5391 19.719 79.7375 19.879C79.8963 19.999 80.055 20.079 80.2535 20.079C80.4519 20.079 80.6504 19.999 80.8091 19.839C80.9679 19.679 81.0473 19.479 81.0473 19.239C81.0473 18.999 80.9679 18.799 80.8091 18.639C80.6901 18.479 80.4916 18.399 80.2535 18.399Z" fill="#0A5783"/>
<path d="M83.0322 17.999H83.5085C83.7863 17.999 83.9451 18.039 84.0642 18.079C84.1832 18.119 84.2626 18.199 84.342 18.319C84.4214 18.439 84.4611 18.559 84.4611 18.719C84.4611 18.879 84.4214 19.039 84.342 19.159C84.2626 19.279 84.1435 19.359 83.9848 19.399C83.9054 19.439 83.7466 19.439 83.5085 19.439V20.479H83.0719V17.999H83.0322ZM83.4688 18.959H83.6276C83.7466 18.959 83.826 18.959 83.8657 18.919C83.9054 18.919 83.9451 18.879 83.9848 18.839C84.0245 18.799 84.0245 18.759 84.0245 18.719C84.0245 18.639 83.9848 18.559 83.9054 18.519C83.8657 18.479 83.7466 18.479 83.6276 18.479H83.4688V18.959Z" fill="#0A5783"/>
<path d="M85.9697 17.999H87.1604V18.439H86.4063V20.399H85.9697V17.999Z" fill="#0A5783"/>
<path d="M89.7398 17.959C90.097 17.959 90.3748 18.079 90.613 18.319C90.8511 18.559 90.9702 18.879 90.9702 19.239C90.9702 19.599 90.8511 19.879 90.613 20.119C90.3748 20.359 90.097 20.479 89.7398 20.479C89.3826 20.479 89.0651 20.359 88.8269 20.119C88.5888 19.879 88.4697 19.559 88.4697 19.239C88.4697 18.999 88.5094 18.799 88.6285 18.599C88.7476 18.399 88.9063 18.239 89.1048 18.119C89.3032 17.999 89.5017 17.959 89.7398 17.959ZM89.7398 18.399C89.5017 18.399 89.3429 18.479 89.1841 18.639C89.0254 18.799 88.946 18.999 88.946 19.239C88.946 19.519 89.0254 19.719 89.2238 19.879C89.3826 19.999 89.5413 20.079 89.7398 20.079C89.9382 20.079 90.1367 19.999 90.2954 19.839C90.4542 19.679 90.5336 19.479 90.5336 19.239C90.5336 18.999 90.4542 18.799 90.2954 18.639C90.1367 18.479 89.9382 18.399 89.7398 18.399Z" fill="#0A5783"/>
<path d="M92.5186 20.4386V18.0386H92.8758C93.0742 18.0386 93.2727 18.0386 93.352 18.0786C93.5108 18.1186 93.5902 18.1986 93.7092 18.2786C93.7886 18.3986 93.8283 18.5186 93.8283 18.6386C93.8283 18.7186 93.8283 18.7986 93.7886 18.8786C93.7489 18.9586 93.6695 19.0386 93.5902 19.0786C93.7489 19.1586 93.8283 19.2386 93.9077 19.3186C93.9871 19.4386 94.0268 19.5586 94.0268 19.6786C94.0268 19.7986 93.9871 19.9186 93.9077 20.0386C93.8283 20.1586 93.7489 20.2386 93.6299 20.2786C93.5108 20.3186 93.352 20.3586 93.1933 20.3586H92.5186V20.4386ZM92.9551 18.4386V18.9586H93.0742C93.1933 18.9586 93.2727 18.9186 93.3123 18.8786C93.352 18.8386 93.3917 18.7586 93.3917 18.6786C93.3917 18.5986 93.352 18.5586 93.3123 18.5186C93.2727 18.4786 93.1933 18.4386 93.0742 18.4386H92.9551ZM92.9551 19.3586V19.9586H93.0742C93.2727 19.9586 93.3917 19.9186 93.4711 19.8786C93.5505 19.8386 93.5505 19.7586 93.5505 19.6786C93.5505 19.5586 93.5108 19.4786 93.4314 19.4386C93.352 19.3586 93.233 19.3586 93.0345 19.3586H92.9551Z" fill="#0A5783"/>
<path d="M97.0816 20.4386L96.4069 18.6786L95.7321 20.4386H95.2559L96.1687 18.0386H96.645L97.5579 20.4386H97.0816Z" fill="#0A5783"/>
<path d="M99.3839 18.919H99.7014C99.8601 18.559 100.019 18.279 100.257 18.159C100.455 17.999 100.694 17.959 100.932 17.959C101.249 17.959 101.567 18.079 101.805 18.319C102.043 18.559 102.162 18.879 102.162 19.239C102.162 19.599 102.043 19.879 101.805 20.119C101.567 20.359 101.289 20.479 100.932 20.479C100.614 20.479 100.336 20.359 100.098 20.159C99.8601 19.959 99.7014 19.679 99.7014 19.359H99.3839V20.399H98.9473V17.999H99.3839V18.919ZM101.686 19.239C101.686 19.039 101.606 18.839 101.448 18.679C101.289 18.519 101.13 18.439 100.892 18.439C100.694 18.439 100.495 18.519 100.336 18.679C100.178 18.839 100.098 19.039 100.098 19.279C100.098 19.519 100.178 19.719 100.336 19.879C100.495 20.039 100.694 20.119 100.892 20.119C101.09 20.119 101.289 20.039 101.448 19.879C101.606 19.639 101.686 19.439 101.686 19.239Z" fill="#0A5783"/>
<path d="M18.3387 20.919H2.06602C1.15317 20.919 0.359375 20.159 0.359375 19.199V2.79909C0.359375 1.8791 1.11348 1.0791 2.06602 1.0791H18.3387C19.2516 1.0791 20.0454 1.8391 20.0454 2.79909V19.199C20.0057 20.159 19.2516 20.919 18.3387 20.919Z" fill="#FF530F"/>
<path d="M14.0128 20.7186L1.70907 16.9987C0.835896 16.7187 0.319932 15.7987 0.55807 14.8787L4.24919 2.43873C4.52702 1.55874 5.43988 1.03874 6.35274 1.27874L18.6962 4.99872C19.5693 5.27872 20.0853 6.19871 19.8472 7.11871L16.156 19.5586C15.8782 20.4786 14.9257 20.9586 14.0128 20.7186Z" fill="#0A5783"/>
<path fill-rule="evenodd" clip-rule="evenodd" d="M4.72726 2.58566L1.04017 15.012C0.873264 15.6732 1.24377 16.3224 1.85813 16.5215L14.1482 20.2374C14.8185 20.4093 15.4835 20.0543 15.6771 19.4154C15.6772 19.415 15.6773 19.4147 15.6775 19.4143L19.3652 6.98577C19.5321 6.32466 19.1617 5.67543 18.5474 5.47626L6.21774 1.76044C5.57051 1.59462 4.92657 1.96112 4.72726 2.58566ZM3.77245 2.28839C4.12939 1.1578 5.30541 0.486571 6.47993 0.795362L6.48855 0.797627L18.8489 4.52271C19.9763 4.88422 20.6354 6.06938 20.3313 7.24419L20.3291 7.2527L16.6355 19.7011L16.6348 19.7034C16.273 20.9012 15.038 21.5053 13.8857 21.2024L13.8769 21.2001L1.55643 17.475C0.429076 17.1135 -0.230012 15.9284 0.0740821 14.7536L0.0762846 14.7451L3.77245 2.28839Z" fill="white"/>
<path d="M13.9726 12.0389C13.8139 12.7989 13.4964 13.4789 12.9407 14.0389C12.1866 14.8389 11.2738 15.2389 10.1228 15.2389C9.01145 15.2389 8.05891 14.8389 7.34449 14.0789C6.63008 13.3189 6.23319 12.2789 6.23319 11.0389C6.23319 9.83889 6.59039 8.7989 7.34449 8.0389C8.0986 7.23891 9.01145 6.87891 10.1228 6.87891C11.2738 6.87891 12.1866 7.27891 12.9407 8.0389C13.2979 8.4389 13.5757 8.8789 13.7742 9.3989L12.7423 10.4389H17.5844V5.47892L16.354 6.71891C15.719 5.79891 14.9252 4.99892 13.8933 4.43892C12.7026 3.75892 11.4325 3.39893 10.0831 3.39893C8.21766 3.39893 6.5507 4.03892 5.12188 5.35892C3.49461 6.87891 2.66113 8.7589 2.66113 11.0389C2.66113 13.1589 3.37554 14.9189 4.84406 16.3989C6.31257 17.8789 8.05891 18.5988 10.0831 18.5988C11.4722 18.5988 12.7423 18.2788 13.8933 17.5989C15.0443 16.9189 15.9571 15.9989 16.6318 14.8389C17.1081 13.9589 17.4256 13.0389 17.5844 12.0789H13.9726V12.0389Z" fill="white"/>
<path d="M29.7697 0.918945C31.7541 0.918945 33.4608 1.63894 34.8896 3.07893C36.3184 4.51893 37.0329 6.27891 37.0329 8.3589C37.0329 10.4389 36.3184 12.1589 34.9293 13.5989C33.5005 15.0389 31.7938 15.7589 29.8094 15.7589C27.7058 15.7589 25.9595 15.0389 24.5703 13.5589C23.1812 12.0789 22.4668 10.3589 22.4668 8.3189C22.4668 6.95891 22.7843 5.71892 23.459 4.59892C24.0941 3.47893 25.0069 2.55894 26.1182 1.91894C27.2295 1.23894 28.4599 0.918945 29.7697 0.918945ZM29.7697 3.55893C28.4599 3.55893 27.3883 3.99893 26.4754 4.91892C25.6023 5.83892 25.1657 6.99891 25.1657 8.3989C25.1657 9.95889 25.7213 11.1989 26.8326 12.1189C27.7058 12.8389 28.6981 13.1989 29.8094 13.1989C31.0794 13.1989 32.151 12.7189 33.0639 11.7989C33.9371 10.8789 34.4133 9.7189 34.4133 8.3989C34.4133 7.03891 33.9768 5.91892 33.0639 4.99892C32.151 4.07893 31.0397 3.55893 29.7697 3.55893Z" fill="#FF530F"/>
<path d="M40.9613 0.918945V6.11891C41.4376 5.63891 41.9535 5.27892 42.4695 5.03892C43.0252 4.79892 43.6205 4.67892 44.2158 4.67892C45.5653 4.67892 46.7163 5.19892 47.6688 6.23891C48.6214 7.2789 49.0977 8.59889 49.0977 10.1989C49.0977 11.7589 48.6214 13.0789 47.6291 14.1189C46.6369 15.1589 45.4859 15.6788 44.1365 15.6788C43.5411 15.6788 42.9855 15.5588 42.4695 15.3588C41.9535 15.1589 41.4376 14.7989 40.9216 14.3189V15.4388H38.3418V3.39893L40.9613 0.918945ZM43.6999 7.1189C42.8664 7.1189 42.1917 7.3989 41.6757 7.9589C41.1201 8.51889 40.8819 9.27889 40.8819 10.1589C40.8819 11.0789 41.1597 11.8389 41.6757 12.3989C42.2314 12.9589 42.9061 13.2789 43.6999 13.2789C44.4937 13.2789 45.1684 12.9989 45.724 12.3989C46.2797 11.7989 46.5575 11.0789 46.5575 10.1589C46.5575 9.27889 46.2797 8.51889 45.7637 7.9589C45.2081 7.3989 44.5334 7.1189 43.6999 7.1189Z" fill="#FF530F"/>
<path d="M61.4023 4.9592H63.625V6.27919C63.8631 5.75919 64.1806 5.3592 64.5775 5.0792C64.9744 4.7992 65.411 4.6792 65.8873 4.6792C66.2048 4.6792 66.562 4.7592 66.9589 4.9592L66.1651 7.19919C65.8476 7.03919 65.6094 6.95919 65.411 6.95919C65.0141 6.95919 64.6569 7.19919 64.3791 7.71918C64.1012 8.23918 63.9822 9.19918 63.9822 10.6792V11.1992V15.4391H61.4023V4.9592Z" fill="#FF530F"/>
<path d="M72.237 4.6792C73.2292 4.6792 74.1421 4.9192 75.0153 5.43919C75.8884 5.91919 76.5631 6.59919 77.0394 7.43918C77.5157 8.27918 77.7538 9.19917 77.7538 10.1992C77.7538 11.1992 77.5157 12.1192 77.0394 12.9591C76.5631 13.7991 75.8884 14.4791 75.0549 14.9591C74.2215 15.4391 73.3086 15.6791 72.2767 15.6791C70.7685 15.6791 69.4984 15.1591 68.4665 14.0791C67.3949 12.9991 66.8789 11.7192 66.8789 10.1992C66.8789 8.55918 67.4742 7.19918 68.6649 6.11919C69.6572 5.1592 70.8875 4.6792 72.237 4.6792ZM72.2767 7.15918C71.4829 7.15918 70.8082 7.43918 70.2525 7.99918C69.6969 8.55918 69.4587 9.27917 69.4587 10.1592C69.4587 11.0792 69.7365 11.7992 70.2525 12.3592C70.7685 12.9191 71.4432 13.1991 72.2767 13.1991C73.1102 13.1991 73.7849 12.9191 74.3008 12.3592C74.8565 11.7992 75.0946 11.0392 75.0946 10.1592C75.0946 9.27917 74.8168 8.51918 74.3008 7.95918C73.7849 7.43918 73.1102 7.15918 72.2767 7.15918Z" fill="#FF530F"/>
<path d="M81.882 1.11865V4.95863H83.4299V7.19861H81.882V15.4386H79.2625V7.19861H77.9131V4.95863H79.2625V3.39864L81.882 1.11865Z" fill="#FF530F"/>
<path d="M85.3344 12.6792C85.7313 12.6792 86.0885 12.8392 86.406 13.1192C86.6838 13.3992 86.8426 13.7592 86.8426 14.1992C86.8426 14.6392 86.6838 14.9592 86.406 15.2792C86.1282 15.5592 85.771 15.7192 85.3344 15.7192C84.9375 15.7192 84.5803 15.5592 84.2628 15.2792C83.9849 14.9992 83.8262 14.6392 83.8262 14.1992C83.8262 13.7592 83.9849 13.4392 84.2628 13.1192C84.5406 12.7992 84.9375 12.6792 85.3344 12.6792Z" fill="#FF530F"/>
<path d="M87.875 4.9592H90.0976V6.27919C90.3357 5.75919 90.6533 5.3592 91.0502 5.0792C91.4471 4.7992 91.8836 4.6792 92.3599 4.6792C92.6774 4.6792 93.0346 4.7592 93.4315 4.9592L92.6377 7.19919C92.3202 7.03919 92.0821 6.95919 91.8836 6.95919C91.4867 6.95919 91.1295 7.19919 90.8517 7.71918C90.5739 8.23918 90.4548 9.19918 90.4548 10.6792V11.1992V15.4391H87.875V4.9592Z" fill="#FF530F"/>
<path d="M93.8281 4.95898H96.4476V9.99896C96.4476 10.999 96.527 11.679 96.6461 12.0389C96.7651 12.4389 97.0033 12.7189 97.2811 12.9189C97.5589 13.1189 97.9558 13.2389 98.3924 13.2389C98.829 13.2389 99.1862 13.1189 99.5037 12.9189C99.8212 12.7189 100.02 12.3989 100.178 11.9989C100.298 11.6789 100.337 11.039 100.337 10.079V4.95898H102.957V9.39896C102.957 11.239 102.798 12.4789 102.52 13.1589C102.163 13.9989 101.647 14.5989 100.972 15.0389C100.298 15.4789 99.4243 15.6789 98.3924 15.6789C97.2414 15.6789 96.3286 15.4389 95.6142 14.9189C94.8997 14.3989 94.4235 13.6789 94.1456 12.7589C93.9472 12.1189 93.8281 10.959 93.8281 9.27896V4.95898Z" fill="#FF530F"/>
<path d="M58.0279 10.9586C57.9088 11.5186 57.6707 11.9986 57.2738 12.3986C56.7181 12.9586 56.0434 13.2386 55.2496 13.2386C54.4161 13.2386 53.7414 12.9586 53.2254 12.3986C52.7095 11.8386 52.4317 11.0786 52.4317 10.1986C52.4317 9.31864 52.7095 8.59865 53.2254 7.99865C53.7811 7.43865 54.4558 7.15866 55.2496 7.15866C56.0831 7.15866 56.7578 7.43865 57.2738 7.99865C57.5516 8.27865 57.75 8.59865 57.8691 8.95865L57.115 9.71864H60.6077V6.19866L59.7345 7.07866C59.2582 6.39866 58.7026 5.83866 57.9485 5.39867C57.0753 4.91867 56.1625 4.63867 55.1702 4.63867C53.8208 4.63867 52.6301 5.11867 51.5585 6.07866C50.3678 7.15866 49.7725 8.51865 49.7725 10.1586C49.7725 11.6786 50.2884 12.9986 51.36 14.0386C52.4317 15.1186 53.7017 15.6386 55.1702 15.6386C56.2022 15.6386 57.115 15.3986 57.9485 14.9186C58.782 14.4386 59.4567 13.7586 59.933 12.9186C60.2902 12.2786 60.5283 11.5986 60.6077 10.9186H58.0279V10.9586Z" fill="#0A5783"/>
</svg>
