<svg width="145" height="40" viewBox="0 0 145 40" fill="none" xmlns="http://www.w3.org/2000/svg">
<g clip-path="url(#clip0)">
<path d="M34.6954 15.9138L35.8842 16.2638C35.8045 16.5885 35.6787 16.8599 35.5069 17.0775C35.3351 17.2955 35.1226 17.4597 34.8678 17.5706C34.613 17.681 34.2894 17.7364 33.8958 17.7364C33.4188 17.7364 33.0291 17.6693 32.7261 17.5342C32.4236 17.399 32.1628 17.1614 31.9433 16.8214C31.7238 16.4814 31.6143 16.0463 31.6143 15.5157C31.6143 14.8081 31.8072 14.2648 32.1937 13.8847C32.5802 13.5045 33.1266 13.3145 33.833 13.3145C34.3864 13.3145 34.8212 13.4232 35.1372 13.6413C35.4538 13.8588 35.6885 14.1936 35.8424 14.6445L34.645 14.9042C34.6027 14.7738 34.5588 14.6783 34.5133 14.6181C34.4368 14.5172 34.3441 14.4396 34.2346 14.3847C34.1246 14.3303 34.0021 14.3034 33.866 14.3034C33.5592 14.3034 33.3234 14.4238 33.1592 14.6651C33.0356 14.8435 32.9738 15.1244 32.9738 15.5067C32.9738 15.9803 33.0475 16.3055 33.1955 16.4814C33.3424 16.6572 33.5505 16.7448 33.8183 16.7448C34.078 16.7448 34.2737 16.6741 34.407 16.532C34.5393 16.3905 34.6358 16.1841 34.6954 15.9138Z" fill="white"/>
<path d="M36.7559 13.3877H40.3916V14.3006H38.1154V14.9807H40.2268V15.8529H38.1154V16.6961H40.4571V17.6644H36.7559V13.3877Z" fill="white"/>
<path d="M41.0947 13.3877H45.2183V14.4432H43.8349V17.6639H42.4781V14.4432H41.0947V13.3877Z" fill="white"/>
<path d="M47.4073 15.035H48.1315C48.7966 15.035 49.2899 15.1496 49.6108 15.3777C49.9323 15.6063 50.0932 15.9611 50.0932 16.4442C50.0932 16.8392 49.9458 17.1407 49.6515 17.3498C49.3571 17.5588 48.9343 17.6634 48.383 17.6634H46.0537V13.3877H47.4073V15.035ZM47.4073 16.7441H48.1022C48.5272 16.7441 48.7397 16.5947 48.7397 16.2948C48.7397 16.0319 48.5272 15.9009 48.1022 15.9009H47.4073V16.7441Z" fill="white"/>
<path d="M53.04 13.3877H54.824L55.5124 15.9896L56.1955 13.3877H57.9783V17.6639H56.8676V14.403L56.0117 17.6639H55.0061L54.1518 14.403V17.6639H53.0411V13.3877H53.04Z" fill="white"/>
<path d="M61.7573 16.9585H60.2173L60.0032 17.6639H58.6182L60.2682 13.3877H61.7481L63.3976 17.6639H61.9774L61.7573 16.9585ZM61.476 16.0329L60.9914 14.496L60.5116 16.0329H61.476Z" fill="white"/>
<path d="M67.5208 14.4373H65.3975V17.6634H64.0439V13.3877H67.5208V14.4373Z" fill="white"/>
<path d="M71.0493 16.9585H69.5098L69.2952 17.6639H67.9102L69.5602 13.3877H71.0401L72.6891 17.6639H71.2683L71.0493 16.9585ZM70.7685 16.0329L70.2834 14.496L69.8042 16.0329H70.7685Z" fill="white"/>
<path d="M76.0881 15.3399C76.6156 15.4777 76.879 15.8003 76.879 16.3082C76.879 16.7264 76.7132 17.0685 76.3836 17.3362C76.0524 17.6034 75.5856 17.737 74.9839 17.737C73.9529 17.737 73.3133 17.3162 73.0645 16.474L74.3448 16.3805C74.4175 16.6783 74.6218 16.8267 74.9595 16.8267C75.1471 16.8267 75.288 16.7813 75.3845 16.69C75.4826 16.5986 75.5314 16.4708 75.5314 16.3077C75.5314 16.1503 75.4718 16.022 75.3482 15.9238C75.2257 15.8256 75.0609 15.7765 74.8484 15.7765H74.4793V15.012H74.7693C74.9438 15.012 75.0793 14.9682 75.178 14.8795C75.2783 14.7913 75.3271 14.6683 75.3271 14.5104C75.3271 14.2791 75.178 14.163 74.8804 14.163C74.5741 14.163 74.3947 14.296 74.3448 14.5627L73.1322 14.4254C73.3295 13.6846 73.9209 13.314 74.9053 13.314C75.4507 13.314 75.8773 13.4169 76.1863 13.6234C76.4963 13.8293 76.6508 14.1065 76.6508 14.4544C76.6508 14.8758 76.4649 15.1709 76.0881 15.3399Z" fill="white"/>
<path d="M81.9737 13.3877V17.6639H80.6976V15.3154L79.0557 17.6639H77.7764V13.3877H79.0535V15.7531L80.7052 13.3877H81.9737Z" fill="white"/>
<path d="M83.1035 13.3877H84.4598V14.8835H85.9413V13.3877H87.3046V17.6639H85.9413V15.9342H84.4598V17.6639H83.1035V13.3877Z" fill="white"/>
<path d="M88.251 15.5293C88.251 14.8313 88.4499 14.2875 88.8494 13.8989C89.2495 13.5097 89.8056 13.3154 90.5179 13.3154C91.2487 13.3154 91.8119 13.5066 92.2065 13.8888C92.6017 14.2711 92.7995 14.806 92.7995 15.4945C92.7995 15.9945 92.7139 16.4042 92.5404 16.7242C92.367 17.0441 92.1187 17.2928 91.7907 17.4707C91.4639 17.6487 91.0573 17.7374 90.5711 17.7374C90.0756 17.7374 89.6658 17.6608 89.3411 17.5072C89.0158 17.3535 88.7535 17.1106 88.5524 16.778C88.3507 16.4454 88.251 16.0288 88.251 15.5293ZM89.6078 15.5351C89.6078 15.9665 89.6896 16.2769 89.8539 16.4654C90.0198 16.6539 90.2442 16.7484 90.5261 16.7484C90.8182 16.7484 91.0437 16.656 91.2037 16.4712C91.3636 16.2864 91.4422 15.9549 91.4422 15.4765C91.4422 15.0742 91.3603 14.7796 91.1923 14.5942C91.0259 14.4084 90.7993 14.3154 90.5136 14.3154C90.2404 14.3154 90.0203 14.41 89.855 14.5985C89.6896 14.7875 89.6078 15.0995 89.6078 15.5351Z" fill="white"/>
<path d="M93.7471 13.3877H96.2867C96.71 13.3877 97.0353 13.4896 97.2619 13.6939C97.489 13.8983 97.6023 14.1512 97.6023 14.4521C97.6023 14.705 97.5221 14.922 97.36 15.1026C97.2521 15.2235 97.0944 15.3186 96.8868 15.3888C97.2022 15.4632 97.4343 15.59 97.5822 15.77C97.7308 15.9495 97.8056 16.176 97.8056 16.4479C97.8056 16.6692 97.7519 16.8688 97.6478 17.0456C97.541 17.2225 97.3952 17.363 97.212 17.4659C97.0987 17.5298 96.9269 17.5763 96.6981 17.6058C96.3924 17.6449 96.1897 17.6644 96.0894 17.6644H93.7487V13.3877H93.7471ZM95.1158 15.0646H95.7072C95.9181 15.0646 96.0661 15.0292 96.1479 14.9579C96.2314 14.8872 96.2726 14.7842 96.2726 14.6501C96.2726 14.5255 96.2314 14.4284 96.1479 14.3581C96.0666 14.2879 95.9213 14.2531 95.7159 14.2531H95.1169L95.1158 15.0646ZM95.1158 16.7441H95.8069C96.0411 16.7441 96.2054 16.704 96.3008 16.6232C96.3978 16.5425 96.4455 16.4342 96.4455 16.298C96.4455 16.1718 96.3978 16.0699 96.3024 15.9933C96.2075 15.9163 96.0422 15.8777 95.8042 15.8777H95.1153V16.7441H95.1158Z" fill="white"/>
<path d="M101.459 14.7583H102.395L101.566 16.1063L102.395 17.4569H101.459L100.504 16.1079L101.459 14.7583ZM103.011 14.7583H103.948L103.118 16.1079L103.948 17.4569H103.011L102.057 16.1063L103.011 14.7583Z" fill="white"/>
<path d="M104.35 13.3882H105.824L106.429 15.1496L107.03 13.3882H108.41L106.969 16.6897C106.851 16.9564 106.748 17.1549 106.662 17.2858C106.574 17.4173 106.443 17.525 106.27 17.6095C106.098 17.694 105.86 17.7362 105.558 17.7362C105.399 17.7362 105.125 17.714 104.736 17.6697V16.7858C104.965 16.8085 105.132 16.8201 105.239 16.8201C105.551 16.8201 105.742 16.7066 105.809 16.4791L104.35 13.3882Z" fill="white"/>
<path d="M115.639 18.5937H114.545V17.6634H111.742V18.5937H110.651V16.6776H111.103C111.358 15.987 111.483 15.2082 111.483 14.3413V13.3877H115.164V16.6776H115.638L115.639 18.5937ZM113.809 16.6776V14.4373H112.718V14.4928C112.718 15.0836 112.616 15.8122 112.41 16.6776H113.809Z" fill="white"/>
<path d="M116.217 15.5293C116.217 14.8313 116.417 14.2875 116.815 13.8989C117.214 13.5097 117.77 13.3154 118.483 13.3154C119.213 13.3154 119.777 13.5066 120.171 13.8888C120.566 14.2711 120.765 14.806 120.765 15.4945C120.765 15.9945 120.679 16.4042 120.506 16.7242C120.332 17.0441 120.083 17.2928 119.757 17.4707C119.431 17.6487 119.024 17.7374 118.537 17.7374C118.042 17.7374 117.631 17.6608 117.307 17.5072C116.983 17.3535 116.719 17.1106 116.518 16.778C116.317 16.4454 116.217 16.0288 116.217 15.5293ZM117.573 15.5351C117.573 15.9665 117.655 16.2769 117.821 16.4654C117.985 16.6539 118.209 16.7484 118.492 16.7484C118.784 16.7484 119.009 16.656 119.169 16.4712C119.329 16.2864 119.407 15.9549 119.407 15.4765C119.407 15.0742 119.326 14.7796 119.158 14.5942C118.991 14.4084 118.765 14.3154 118.479 14.3154C118.206 14.3154 117.987 14.41 117.82 14.5985C117.656 14.7875 117.573 15.0995 117.573 15.5351Z" fill="white"/>
<path d="M121.695 13.3877H123.479L124.168 15.9896L124.852 13.3877H126.634V17.6639H125.523V14.403L124.668 17.6639H123.663L122.807 14.403V17.6639H121.696L121.695 13.3877Z" fill="white"/>
<path d="M130.415 16.9585H128.874L128.659 17.6639H127.274L128.924 13.3877H130.404L132.053 17.6639H130.633L130.415 16.9585ZM130.132 16.0329L129.647 14.496L129.167 16.0329H130.132Z" fill="white"/>
<path d="M134.398 16.1058L133.444 17.4564H132.507L133.337 16.1074L132.507 14.7578H133.444L134.398 16.1058ZM135.951 16.1074L134.996 17.4564H134.061L134.89 16.1058L134.061 14.7578H134.996L135.951 16.1074Z" fill="white"/>
<path d="M14.3747 12C6.45773 12 0 18.2895 0 26.0003C0 33.7105 6.45773 40 14.3747 40C22.2912 40 28.7484 33.7105 28.7484 26.0003C28.7484 18.2895 22.2906 12 14.3747 12ZM22.6056 32.1561C21.9274 33.0638 21.1566 33.6884 20.2844 34.0215C19.4193 34.3568 18.1817 34.521 16.5772 34.521H7.43075V17.0613H21.9199V20.2293H11.3434V23.1935H16.5777C18.0267 23.1935 19.222 23.3661 20.1728 23.7093C21.1246 24.0514 21.9377 24.6887 22.6121 25.6175C23.2864 26.5436 23.6241 27.6307 23.6241 28.8741C23.6241 30.1519 23.2859 31.2453 22.6056 32.1561Z" fill="white"/>
<path d="M18.594 26.9594C17.9749 26.5708 16.926 26.3749 15.4483 26.3633H11.3438V31.3554H15.1507C15.2532 31.3554 15.3508 31.3554 15.4483 31.3523C16.5086 31.3454 17.2627 31.2884 17.7131 31.1844C18.2097 31.0656 18.639 30.8037 19.0033 30.3924C19.3686 29.979 19.5529 29.4726 19.5535 28.8734C19.5535 27.9974 19.2353 27.3601 18.594 26.9594Z" fill="white"/>
<path d="M40.8518 30.9507C40.2794 31.6228 39.5611 31.9613 38.6998 31.9613C38.6629 31.9613 38.6288 31.9613 38.5924 31.9613C37.7365 31.9333 37.0112 31.5621 36.4122 30.8567C35.7872 30.1286 35.4723 28.9913 35.4723 27.4575C35.4723 26.1169 35.7709 25.1069 36.3699 24.4252C36.9641 23.7505 37.704 23.4115 38.593 23.4009H38.6326C39.5031 23.4009 40.2322 23.7494 40.8236 24.4421C41.4145 25.1375 41.7132 26.2009 41.7132 27.6381C41.7126 29.1703 41.4232 30.2796 40.8518 30.9507ZM43.6749 22.4067C42.4677 21.0276 40.4219 20.3919 38.5924 20.4732C37.1196 20.5371 35.7872 21.0662 35.153 22.0477V20.8523H31.6875V39.745H35.3991V33.4724C36.2279 34.3367 37.3782 34.7882 38.5919 34.8763C40.4328 35.0089 42.4249 34.3066 43.6635 32.9323C44.8095 31.6683 45.3803 29.8926 45.3803 27.6106C45.3803 25.3873 44.7846 23.6744 43.6749 22.4067Z" fill="white"/>
<path d="M48.9229 20.8525H52.4913V29.4414L58.2032 20.8525H61.8508V34.5218H58.2801V25.7835L52.4913 34.5218H48.9229V20.8525Z" fill="white"/>
<path d="M78.5832 24.894L74.9188 25.5355C74.8001 24.8238 74.5176 24.2863 74.0813 23.9278C73.6411 23.5656 73.0801 23.386 72.3813 23.386C71.4544 23.386 70.7188 23.6991 70.1675 24.319C69.6178 24.9426 69.343 25.9843 69.343 27.4431C69.343 29.0625 69.6216 30.2093 70.1816 30.8793C70.7405 31.5488 71.4918 31.8814 72.4345 31.8814C73.1408 31.8814 73.7159 31.6877 74.1664 31.297C74.6174 30.9062 74.9318 30.2325 75.1188 29.2837L78.7708 29.8867C78.3875 31.5182 77.6579 32.7547 76.5851 33.5837C75.5124 34.4179 74.0699 34.8324 72.261 34.8324C70.2092 34.8324 68.5711 34.2036 67.353 32.9422C66.1296 31.6798 65.5225 29.931 65.5225 27.6982C65.5225 25.4436 66.1345 23.6849 67.3579 22.4304C68.5857 21.1669 70.2412 20.5386 72.3298 20.5386C74.0401 20.5386 75.3974 20.8987 76.4095 21.6141C77.415 22.3311 78.1409 23.4262 78.5832 24.894Z" fill="white"/>
<path d="M80.6533 20.8525H93.3541V23.7734H88.8609V34.5218H85.1466V23.7734H80.6533V20.8525Z" fill="white"/>
<path d="M104.959 30.8028C104.305 31.5198 103.491 31.8825 102.523 31.8825H102.514C101.551 31.8809 100.735 31.5192 100.078 30.8028C99.4117 30.0794 99.0838 29.044 99.0838 27.686C99.0838 26.3301 99.4112 25.29 100.078 24.5682C100.735 23.8501 101.551 23.4895 102.514 23.4895H102.523C103.491 23.4895 104.305 23.848 104.959 24.5682C105.616 25.2905 105.948 26.3227 105.948 27.6586C105.948 29.0324 105.616 30.0794 104.959 30.8028ZM107.729 22.5566C106.373 21.2123 104.632 20.5386 102.514 20.5386H102.509C101.132 20.5386 99.8877 20.8364 98.7716 21.4314C97.6576 22.0201 96.7957 22.8792 96.1853 24.0012C95.5836 25.1274 95.2725 26.2911 95.2725 27.4896C95.2725 29.0625 95.5825 30.3957 96.1853 31.4897C96.7962 32.5842 97.6852 33.4147 98.8534 33.9823C100.017 34.5473 101.233 34.8287 102.514 34.8308H102.535C104.616 34.8308 106.341 34.1523 107.711 32.7912C109.078 31.4279 109.763 29.7151 109.763 27.6506C109.763 25.5973 109.088 23.8992 107.729 22.5566Z" fill="white"/>
<path d="M113.922 20.8525H126.362V34.5218H122.664V23.7866H117.602V29.9266C117.602 31.4921 117.416 32.5861 117.045 33.2181C116.674 33.848 116.266 34.2599 115.814 34.4589C115.368 34.6559 114.644 34.7562 113.65 34.7562C113.058 34.7562 112.274 34.6786 111.306 34.5218V31.8617C111.391 31.8617 111.596 31.8675 111.928 31.8834C112.316 31.9098 112.614 31.9214 112.827 31.9214C113.328 31.9214 113.64 31.7646 113.752 31.4383C113.869 31.1157 113.922 30.2223 113.922 28.754V20.8525Z" fill="white"/>
<path d="M140.376 31.7155C140.072 32.0581 139.379 32.2318 138.295 32.2318H134.83V28.754H137.254C137.459 28.754 137.65 28.7577 137.833 28.7624C138.864 28.7957 139.603 28.9192 140.045 29.1278C140.57 29.378 140.835 29.8337 140.835 30.4937C140.837 30.9652 140.683 31.3733 140.376 31.7155ZM143.887 28.1684C143.367 27.4868 142.717 27.0443 141.933 26.8395C141.15 26.6314 140.023 26.5306 138.563 26.5306H134.832V20.8525H131.118V34.5218H139.092C140.949 34.5218 142.344 34.1896 143.275 33.5275C144.203 32.8623 144.667 31.8665 144.667 30.5481C144.667 29.6441 144.407 28.85 143.887 28.1684Z" fill="white"/>
</g>
<defs>
<clipPath id="clip0">
<rect width="144.667" height="40" fill="white"/>
</clipPath>
</defs>
</svg>
