<svg width="52" height="40" viewBox="0 0 52 40" fill="none" xmlns="http://www.w3.org/2000/svg">
<path d="M36.5815 10.773C36.5839 12.6935 36.0623 14.5794 35.0712 16.2334C35.0712 16.2334 31.2604 17.5574 25.6407 17.5574C20.021 17.5574 16.2102 16.2334 16.2102 16.2334C15.3579 14.8058 14.8513 13.2038 14.7298 11.5521C14.6082 9.90036 14.875 8.24326 15.5094 6.70953C16.1438 5.1758 17.1286 3.80673 18.3875 2.70868C19.6464 1.61063 21.1454 0.813152 22.768 0.378206C24.3907 -0.0567398 26.0933 -0.117448 27.7437 0.200798C29.394 0.519044 30.9477 1.20768 32.2839 2.2132C33.6201 3.21872 34.7029 4.51406 35.4483 5.9986C36.1936 7.48313 36.5814 9.1169 36.5815 10.773Z" fill="white"/>
<path d="M27.2638 11.6892H23.8852C24.0738 11.4141 24.2209 11.1136 24.3219 10.7969C24.438 10.448 24.5289 10.0915 24.594 9.72995C24.6595 9.36454 24.7061 9.00745 24.7337 8.65869C24.7616 8.30972 24.7752 6.77805 24.7752 6.5186V5.9912H27.2638V11.6892ZM30.5415 11.9876C30.5413 11.9085 30.5093 11.8327 30.4525 11.7767C30.3957 11.7208 30.3188 11.6893 30.2384 11.6892H29.6429V4.88218V4.36999C29.6432 4.36879 29.6432 4.36754 29.6429 4.36634C29.643 4.32718 29.6352 4.28839 29.62 4.25219C29.6049 4.21598 29.5826 4.18308 29.5545 4.15536C29.5264 4.12765 29.4931 4.10566 29.4563 4.09065C29.4196 4.07565 29.3802 4.06792 29.3405 4.06792H23.8345C23.67 4.06792 23.5117 4.06792 23.3614 4.06427C23.2253 4.05973 23.0893 4.07471 22.9576 4.10873C22.8488 4.13559 22.7512 4.19494 22.6781 4.27864C22.6094 4.36025 22.5754 4.48449 22.5754 4.65258V5.43943C22.5754 5.70455 22.5713 5.9912 22.563 6.29936C22.5544 6.60813 22.5352 8.15016 22.5049 8.47233C22.4746 8.7945 22.4301 9.11302 22.3725 9.4297C22.3173 9.73546 22.2383 10.0366 22.1363 10.3304C22.043 10.6031 21.9186 10.8644 21.7652 11.1094C21.6559 11.2847 21.522 11.444 21.3676 11.5826C21.2944 11.6456 21.2045 11.6867 21.1085 11.7013C21.0257 11.7133 20.9465 11.7424 20.8759 11.7866C20.7844 11.8475 20.7393 11.9736 20.7393 12.1678V14.7951V14.7994C20.7393 14.8784 20.7711 14.9541 20.8278 15.01C20.8845 15.0658 20.9615 15.0972 21.0417 15.0972H22.8178C22.898 15.0972 22.9749 15.0658 23.0317 15.01C23.0884 14.9541 23.1202 14.8784 23.1202 14.7994C23.1202 14.7994 23.1202 14.7994 23.1202 14.7951V13.5881H28.145V14.2805V14.7927C28.145 14.7927 28.145 14.7927 28.145 14.797C28.145 14.8361 28.1529 14.8749 28.1681 14.9111C28.1834 14.9472 28.2057 14.9801 28.2338 15.0078C28.262 15.0354 28.2954 15.0573 28.3322 15.0723C28.3689 15.0872 28.4083 15.0949 28.4481 15.0948H30.2415C30.3218 15.0948 30.3988 15.0634 30.4556 15.0076C30.5124 14.9518 30.5444 14.876 30.5446 14.797C30.5446 14.797 30.5446 14.797 30.5446 14.7927V11.9912C30.5446 11.9912 30.5446 11.9912 30.5446 11.9876H30.5415Z" fill="#06BBCE"/>
<path d="M16.7109 16.9928C17.7205 18.4006 19.0586 19.5491 20.6125 20.3418C22.1665 21.1345 23.8911 21.5483 25.6412 21.5483C27.3913 21.5483 29.1158 21.1345 30.6698 20.3418C32.2238 19.5491 33.5618 18.4006 34.5714 16.9928L34.5615 16.9958L34.546 17.0007L34.5238 17.008L34.4953 17.0172L34.4619 17.0281L34.4224 17.0409L34.3766 17.0555L34.3246 17.072L34.2677 17.0896L34.2059 17.1085L34.1379 17.1292L34.0649 17.1511L33.9864 17.1743L33.9029 17.1993L33.8144 17.2248L33.7217 17.251L33.6233 17.2784L33.5207 17.307L33.4131 17.3363L33.3011 17.3667L33.1849 17.3978L33.0643 17.4301L32.9406 17.4623L32.8113 17.4952L32.679 17.5287L32.5417 17.5628L32.4013 17.5969L32.2566 17.6317L32.1088 17.6664L31.9579 17.7011L31.8033 17.7364L31.645 17.7711L31.4842 17.8058C31.4297 17.818 31.3747 17.829 31.319 17.8405L31.1453 17.8753L30.9746 17.91L30.802 17.9435L30.6264 17.977C30.5645 17.9885 30.5076 17.9995 30.4477 18.0099L30.2671 18.0421L30.0815 18.0738L29.896 18.1055L29.7105 18.1359L29.5206 18.1652L29.3289 18.1938L29.1347 18.2218L28.9393 18.2486L28.742 18.2742L28.5435 18.2985L28.3425 18.3223L28.1409 18.3442C28.0735 18.3509 28.0055 18.3582 27.9374 18.3643L27.7327 18.3832L27.5274 18.4008L27.3208 18.4167L27.113 18.4313C27.0438 18.4362 26.9745 18.4404 26.9046 18.4441C26.8354 18.4483 26.7655 18.452 26.6956 18.455L26.4859 18.4642C26.4154 18.4642 26.3462 18.4697 26.2757 18.4715C26.2058 18.4715 26.1353 18.4751 26.0654 18.477H25.8539L25.6412 18.4843C21.134 18.4843 16.7109 16.9922 16.7109 16.9922V16.9928Z" fill="white"/>
<path d="M10.608 36.1934H9.94385V28.0222C9.94385 28.0222 9.94385 28.0222 9.94385 28.018C9.94385 27.9297 9.90829 27.8451 9.84498 27.7826C9.78168 27.7202 9.69579 27.685 9.60618 27.6849H3.45706C3.27153 27.6849 3.09713 27.6849 2.92892 27.68C2.77698 27.6752 2.62515 27.6921 2.47808 27.7299C2.35661 27.7601 2.24755 27.8265 2.16577 27.9199C2.08991 28.0109 2.05177 28.1499 2.05136 28.3371V29.2153C2.05136 29.5121 2.04662 29.8322 2.03713 30.1757C2.02786 30.5198 2.00683 32.2421 1.97529 32.6014C1.94375 32.9608 1.89242 33.317 1.82748 33.6703C1.76567 34.0115 1.67759 34.3477 1.56403 34.6758C1.45947 34.9802 1.32004 35.272 1.14844 35.5454C1.02239 35.7472 0.867188 35.9298 0.687704 36.0875C0.614613 36.1513 0.524074 36.1926 0.427342 36.2062C0.329781 36.2186 0.2361 36.2516 0.152756 36.303C0.0505082 36.37 -0.000409807 36.5121 2.48368e-06 36.7294V39.6624C2.48368e-06 39.6624 2.48368e-06 39.6624 2.48368e-06 39.6666C2.33393e-06 39.7549 0.0355579 39.8395 0.098865 39.902C0.162172 39.9644 0.248057 39.9996 0.337669 39.9998H2.32038C2.36477 39.9998 2.40873 39.9912 2.44974 39.9744C2.49075 39.9577 2.528 39.9331 2.55936 39.9022C2.59073 39.8712 2.61559 39.8345 2.63252 39.7941C2.64945 39.7537 2.65812 39.7104 2.65804 39.6666V39.6624V38.3128H8.26912V39.6606V39.6648C8.26904 39.7085 8.27771 39.7518 8.29465 39.7923C8.31158 39.8327 8.33644 39.8694 8.3678 39.9003C8.39916 39.9313 8.43642 39.9558 8.47742 39.9726C8.51843 39.9893 8.56239 39.9979 8.60679 39.9979H10.6074C10.6519 39.9979 10.6958 39.9893 10.7369 39.9726C10.7779 39.9558 10.8152 39.9313 10.8466 39.9004C10.878 39.8694 10.903 39.8327 10.92 39.7923C10.937 39.7519 10.9457 39.7086 10.9457 39.6648C10.9457 39.6648 10.9457 39.6648 10.9457 39.6606V36.5302C10.9457 36.5302 10.9457 36.5302 10.9457 36.5259C10.9455 36.4377 10.9098 36.3531 10.8464 36.2908C10.783 36.2284 10.697 36.1934 10.6074 36.1934H10.608ZM7.28519 36.1934H3.51272C3.72341 35.8864 3.88757 35.5507 4.00005 35.1971C4.12993 34.8075 4.23182 34.4095 4.30494 34.0058C4.37833 33.5998 4.43048 33.2013 4.4614 32.8103C4.49233 32.4206 4.50717 30.7111 4.50717 30.4212V29.8322H7.28519V36.1934Z" fill="white"/>
<path d="M28.5184 32.2757L31.9947 28.3914C32.0479 28.3318 32.0825 28.2583 32.0944 28.1798C32.1064 28.1013 32.0951 28.021 32.062 27.9487C32.0288 27.8763 31.9752 27.8148 31.9076 27.7716C31.84 27.7284 31.7611 27.7053 31.6805 27.7051H29.5413C29.481 27.705 29.4213 27.7179 29.3664 27.7427C29.3116 27.7675 29.2628 27.8037 29.2235 27.8488L25.5555 32.051V28.118C25.5556 28.0637 25.5448 28.01 25.5238 27.9599C25.5027 27.9097 25.4718 27.8642 25.4329 27.8258C25.3939 27.7875 25.3477 27.7571 25.2968 27.7363C25.2459 27.7156 25.1913 27.705 25.1362 27.7051H23.3533C23.2982 27.7051 23.2437 27.7158 23.1929 27.7365C23.142 27.7573 23.0959 27.7877 23.057 27.8261C23.0181 27.8644 22.9873 27.9099 22.9663 27.96C22.9453 28.0101 22.9345 28.0638 22.9346 28.118V38.1607C22.9345 38.2149 22.9453 38.2685 22.9663 38.3186C22.9873 38.3687 23.0181 38.4143 23.057 38.4526C23.0959 38.491 23.142 38.5214 23.1929 38.5421C23.2437 38.5629 23.2982 38.5736 23.3533 38.5736H25.1381C25.1931 38.5737 25.2477 38.563 25.2986 38.5423C25.3495 38.5216 25.3958 38.4912 25.4347 38.4528C25.4737 38.4145 25.5046 38.3689 25.5256 38.3188C25.5467 38.2686 25.5574 38.2149 25.5574 38.1607V35.3628L26.7281 34.0924L29.3521 38.3744C29.3896 38.4352 29.4423 38.4855 29.5053 38.5203C29.5682 38.5552 29.6392 38.5736 29.7114 38.5736H31.7368C31.8116 38.5736 31.885 38.5539 31.9494 38.5166C32.0139 38.4793 32.0671 38.4257 32.1034 38.3613C32.1397 38.297 32.1579 38.2242 32.1561 38.1506C32.1543 38.077 32.1325 38.0052 32.093 37.9426L28.5184 32.2788V32.2757Z" fill="white"/>
<path d="M40.5409 35.6625C40.4797 35.6256 40.4099 35.6048 40.3383 35.602C40.2666 35.5993 40.1954 35.6146 40.1315 35.6466C39.2523 36.0889 38.2782 36.3174 37.291 36.3129C35.4357 36.3129 34.0844 34.9791 34.0844 33.1411C34.0844 31.2739 35.4208 29.9694 37.3336 29.9694C38.2613 29.9694 39.1512 30.1923 40.0603 30.6497C40.1241 30.6818 40.1952 30.6973 40.2667 30.6948C40.3383 30.6922 40.408 30.6716 40.4692 30.635C40.5305 30.5983 40.5811 30.5468 40.6164 30.4854C40.6517 30.424 40.6704 30.3548 40.6707 30.2842V28.6521C40.6707 28.579 40.6509 28.5073 40.6136 28.4442C40.5762 28.381 40.5225 28.3288 40.458 28.2928C40.1364 28.1137 38.9558 27.5278 37.2625 27.5278C33.9471 27.5278 31.4492 29.942 31.4492 33.1436C31.4492 36.3452 33.931 38.7593 37.2229 38.7593C39.1302 38.7593 40.3937 38.0851 40.5316 38.0084C40.5961 37.9723 40.6498 37.9199 40.6871 37.8567C40.7243 37.7934 40.7439 37.7216 40.7437 37.6485V36.0145C40.7438 35.9438 40.7254 35.8743 40.6903 35.8126C40.6552 35.751 40.6046 35.6993 40.5433 35.6625H40.5409Z" fill="white"/>
<path d="M12.7533 27.7058H14.5084C14.6196 27.706 14.7261 27.7496 14.8047 27.827C14.8833 27.9044 14.9275 28.0093 14.9277 28.1188V33.4495L20.6544 27.679C20.6934 27.6395 20.74 27.6081 20.7915 27.5866C20.8431 27.5652 20.8984 27.5542 20.9544 27.5542H21.0107C21.0658 27.5542 21.1203 27.5649 21.1713 27.5857C21.2222 27.6065 21.2684 27.6369 21.3074 27.6754C21.3463 27.7138 21.3772 27.7594 21.3982 27.8095C21.4192 27.8597 21.43 27.9134 21.43 27.9677V38.1614C21.43 38.2157 21.4192 38.2694 21.3982 38.3195C21.3772 38.3697 21.3463 38.4152 21.3073 38.4536C21.2684 38.492 21.2221 38.5224 21.1712 38.5431C21.1203 38.5638 21.0657 38.5744 21.0107 38.5744H19.2543C19.1431 38.5744 19.0364 38.5309 18.9578 38.4534C18.8792 38.376 18.835 38.271 18.835 38.1614V32.8173L13.0959 38.603C13.0566 38.6419 13.0099 38.6727 12.9584 38.6936C12.9069 38.7145 12.8517 38.7251 12.796 38.7248H12.7533C12.6982 38.7249 12.6436 38.7142 12.5927 38.6935C12.5418 38.6728 12.4956 38.6424 12.4566 38.604C12.4177 38.5657 12.3868 38.5201 12.3657 38.47C12.3447 38.4198 12.3339 38.3661 12.334 38.3119V28.1188C12.334 28.0092 12.3782 27.9042 12.4568 27.8268C12.5354 27.7493 12.6421 27.7058 12.7533 27.7058Z" fill="white"/>
<path d="M42.6048 27.7058H44.3612C44.4724 27.7058 44.5791 27.7493 44.6577 27.8268C44.7363 27.9042 44.7805 28.0092 44.7805 28.1188V33.4495L50.506 27.679C50.545 27.6396 50.5917 27.6083 50.6432 27.5868C50.6947 27.5654 50.75 27.5543 50.8059 27.5542H50.8628C50.9179 27.5542 50.9725 27.5649 51.0234 27.5857C51.0743 27.6065 51.1206 27.6369 51.1595 27.6754C51.1985 27.7138 51.2294 27.7594 51.2504 27.8095C51.2714 27.8597 51.2822 27.9134 51.2821 27.9677V38.1614C51.2822 38.2157 51.2714 38.2694 51.2504 38.3195C51.2293 38.3697 51.1985 38.4152 51.1595 38.4536C51.1206 38.492 51.0743 38.5224 51.0234 38.5431C50.9725 38.5638 50.9179 38.5744 50.8628 38.5744H49.1059C49.0508 38.5744 48.9963 38.5637 48.9455 38.5429C48.8946 38.5222 48.8485 38.4917 48.8096 38.4534C48.7707 38.415 48.7399 38.3695 48.7189 38.3194C48.6979 38.2693 48.6871 38.2156 48.6872 38.1614V32.8173L42.9475 38.603C42.9082 38.6419 42.8615 38.6728 42.81 38.6937C42.7585 38.7146 42.7032 38.7252 42.6475 38.7248H42.6048C42.4936 38.7248 42.387 38.6813 42.3084 38.6038C42.2297 38.5264 42.1855 38.4214 42.1855 38.3119V28.1188C42.1857 28.0093 42.2299 27.9044 42.3085 27.827C42.3871 27.7496 42.4937 27.706 42.6048 27.7058Z" fill="white"/>
</svg>
