<svg width="150" height="40" viewBox="0 0 150 40" fill="none" xmlns="http://www.w3.org/2000/svg">
<path d="M3.67748 19.4314C3.20494 19.6791 2.7362 19.7691 2.29414 19.7691C0.846014 19.7691 0 18.786 0 17.424C0 16.0731 0.960336 15 2.39703 15C2.90769 15 3.33451 15.1126 3.58603 15.2476V15.833C3.24686 15.6566 2.88101 15.5366 2.40846 15.5366C1.3338 15.5366 0.674525 16.3771 0.674525 17.3939C0.674525 18.4821 1.32618 19.2288 2.36654 19.2288C2.81242 19.2288 3.17064 19.1012 3.49837 18.9249L3.67748 19.4314Z" fill="white"/>
<path d="M6.13186 15.582H4.76758V15.0454H8.26976L8.07541 15.582H6.76828V19.702H6.13186V15.582Z" fill="white"/>
<path d="M9.63965 15.0454H10.6076C11.0687 15.0454 11.3888 15.1167 11.648 15.2555C12.0938 15.4957 12.3568 15.9347 12.3568 16.5351C12.3568 17.0716 12.1205 17.5857 11.526 17.8484C11.2821 17.9534 10.9735 18.0172 10.5504 18.0172H10.2799V19.6982H9.63965V15.0454ZM10.5962 17.5031C10.882 17.5031 11.0916 17.4544 11.2402 17.3756C11.5489 17.2217 11.6937 16.9328 11.6937 16.5351C11.6937 16.1673 11.5489 15.8709 11.2707 15.7096C11.1145 15.6195 10.9049 15.5632 10.6038 15.5632H10.2799V17.5031H10.5962Z" fill="white"/>
<path d="M15.3249 15.0317H15.7975L17.6343 19.6996H16.9445L16.4834 18.4763H14.6466L14.1931 19.6996H13.5186L15.3249 15.0317ZM16.2852 17.966L15.8394 16.7503C15.7022 16.3563 15.6298 16.1424 15.5726 15.9736H15.5574C15.5078 16.1424 15.4278 16.36 15.283 16.7578L14.8371 17.966H16.2852Z" fill="white"/>
<path d="M20.2846 17.3643L18.7298 15.0454H19.4691L20.6885 16.884L21.9728 15.0454H22.6892L21.062 17.3418L22.6473 19.702H21.9194L20.658 17.8221L19.3319 19.702H18.623L20.2846 17.3643Z" fill="white"/>
<path d="M23.9473 17.3904C23.9473 15.9795 24.9305 15.0039 26.2795 15.0039C27.6438 15.0039 28.6041 15.9983 28.6041 17.3904C28.6041 18.8387 27.6019 19.7693 26.2795 19.7693C24.9381 19.7693 23.9473 18.8312 23.9473 17.3904ZM27.9296 17.3904C27.9296 16.3247 27.3275 15.5405 26.2795 15.5405C25.2811 15.5405 24.6218 16.2759 24.6218 17.3904C24.6218 18.5123 25.2811 19.2327 26.2795 19.2327C27.2665 19.2327 27.9296 18.5123 27.9296 17.3904Z" fill="white"/>
<path d="M30.3604 15.0454H31.5532C32.5554 15.0454 33.0089 15.597 33.0089 16.2236C33.0089 16.6739 32.7803 17.0491 32.3992 17.218V17.233C32.9365 17.3531 33.31 17.7921 33.31 18.3624C33.31 19.1241 32.7498 19.6982 31.6903 19.6982H30.3642V15.0454H30.3604ZM31.4807 17.0641C32.0638 17.0641 32.3687 16.7752 32.3687 16.3099C32.3687 15.8784 32.1095 15.567 31.4922 15.567H30.9968V17.0641H31.4807ZM31.6522 19.1767C32.2696 19.1767 32.6545 18.944 32.6545 18.3737C32.6545 17.8934 32.2887 17.5895 31.7208 17.5895H30.9968V19.1767H31.6522Z" fill="white"/>
<path d="M36.3143 15.0317H36.7868L38.6236 19.6996H37.9339L37.4766 18.4763H35.6397L35.1862 19.6996H34.5117L36.3143 15.0317ZM37.2784 17.966L36.8325 16.7503C36.6953 16.3563 36.6229 16.1424 36.5658 15.9736H36.5505C36.501 16.1424 36.421 16.36 36.2762 16.7578L35.8341 17.966H37.2784Z" fill="white"/>
<path d="M40.4505 18.2161C40.6372 17.8709 40.7591 17.6795 40.9535 17.5744V17.5594C40.4009 17.3831 40.1227 16.9516 40.1227 16.4075C40.1227 15.5032 40.7896 15.0454 41.6776 15.0454H42.9694V19.6982H42.333V17.7696H41.6166C41.4718 17.7696 41.3003 17.9159 41.0945 18.3362L40.42 19.6982H39.6807L40.4505 18.2161ZM41.7385 17.2555H42.3254V15.5595H41.7576C41.1822 15.5595 40.7744 15.8484 40.7744 16.4337C40.7782 17.0116 41.1936 17.2555 41.7385 17.2555Z" fill="white"/>
<path d="M48.535 15.0317H49.0075L50.8443 19.6996H50.1546L49.6973 18.4763H47.8604L47.407 19.6996H46.7324L48.535 15.0317ZM49.4953 17.966L49.0494 16.7503C48.9122 16.3563 48.8398 16.1424 48.7827 15.9736H48.7674C48.7179 16.1424 48.6379 16.36 48.493 16.7578L48.0472 17.966H49.4953Z" fill="white"/>
<path d="M52.3105 15.0452H52.9432V17.1014H53.4081C54.1398 17.1014 54.2046 16.1484 54.5209 15.4992C54.6695 15.1953 54.9019 15.0039 55.2754 15.0039C55.3821 15.0039 55.5269 15.0189 55.626 15.0602V15.6268C55.5307 15.593 55.4545 15.5855 55.3821 15.5855C55.2106 15.5855 55.1077 15.6643 55.0315 15.8031C54.8029 16.2196 54.6962 17.0376 54.1931 17.3303V17.3453C54.4218 17.4241 54.5933 17.6568 54.7952 18.0282L55.706 19.7018H54.9744L54.1855 18.1821C53.9721 17.7731 53.7892 17.623 53.6482 17.623H52.947V19.698H52.3144V15.0452H52.3105Z" fill="white"/>
<path d="M57.2578 15.0454H57.8866V19.1654H60.1312V15.0454H60.7714V19.1654H61.3431V21.0003H60.7219V19.702H57.2578V15.0454Z" fill="white"/>
<path d="M62.8935 15.0454H63.5261V17.8559C63.5261 18.1823 63.5261 18.4149 63.5108 18.6626H63.5261C63.6823 18.4375 63.8843 18.1485 64.1625 17.7921L66.2623 15.0454H66.8796V19.6982H66.2394V16.7827C66.2394 16.445 66.247 16.2236 66.2546 16.006H66.2394C66.0831 16.2311 65.8812 16.5088 65.622 16.8465L63.4346 19.6982H62.8896V15.0454H62.8935Z" fill="white"/>
<path d="M68.6211 17.3904C68.6211 15.9795 69.6043 15.0039 70.9533 15.0039C72.3176 15.0039 73.278 15.9983 73.278 17.3904C73.278 18.8387 72.2719 19.7693 70.9533 19.7693C69.6119 19.7693 68.6211 18.8312 68.6211 17.3904ZM72.6034 17.3904C72.6034 16.3247 72.0013 15.5405 70.9533 15.5405C69.9549 15.5405 69.2956 16.2759 69.2956 17.3904C69.2956 18.5123 69.9549 19.2327 70.9533 19.2327C71.9404 19.2327 72.6034 18.5123 72.6034 17.3904Z" fill="white"/>
<path d="M75.0244 15.0454H75.6608V17.0529H78.1455V15.0454H78.7743V19.702H78.1455V17.5895H75.6608V19.702H75.0244V15.0454Z" fill="white"/>
<path d="M80.7383 15.0454H83.1277L82.9334 15.582H81.3785V17.0604H82.9181V17.597H81.3785V19.1654H83.1544V19.702H80.7383V15.0454Z" fill="white"/>
<path d="M84.9326 15.0454H85.9006C86.3579 15.0454 86.6818 15.1167 86.9409 15.2555C87.3868 15.4957 87.6498 15.9347 87.6498 16.5351C87.6498 17.0716 87.4135 17.5857 86.819 17.8484C86.5751 17.9534 86.2664 18.0172 85.8434 18.0172H85.5728V19.6982H84.9364V15.0454H84.9326ZM85.8853 17.5031C86.1711 17.5031 86.3807 17.4544 86.5294 17.3756C86.838 17.2217 86.9829 16.9328 86.9829 16.5351C86.9829 16.1673 86.8381 15.8709 86.5599 15.7096C86.4036 15.6195 86.194 15.5632 85.893 15.5632H85.569V17.5031H85.8853Z" fill="white"/>
<path d="M89.3135 15.0454H89.9537V17.0529H92.4346V15.0454H93.0672V19.702H92.4346V17.5895H89.9537V19.702H89.3135V15.0454Z" fill="white"/>
<path d="M96.3251 15.0317H96.8015L98.6383 19.6996H97.9523L97.4912 18.4763H95.6544L95.2009 19.6996H94.5264L96.3251 15.0317ZM97.2854 17.966L96.8396 16.7503C96.7024 16.3563 96.63 16.1424 96.5728 15.9736H96.5576C96.508 16.1424 96.428 16.36 96.2832 16.7578L95.8373 17.966H97.2854Z" fill="white"/>
<path d="M100.465 18.2161C100.652 17.8709 100.774 17.6795 100.968 17.5744V17.5594C100.415 17.3831 100.137 16.9516 100.137 16.4075C100.137 15.5032 100.804 15.0454 101.692 15.0454H102.984V19.6982H102.344V17.7696H101.627C101.483 17.7696 101.311 17.9159 101.105 18.3362L100.431 19.6982H99.6914L100.465 18.2161ZM101.757 17.2555H102.344V15.5595H101.776C101.201 15.5595 100.793 15.8484 100.793 16.4337C100.797 17.0116 101.212 17.2555 101.757 17.2555Z" fill="white"/>
<path d="M107.252 15.0452H107.885V17.1014H108.349C109.081 17.1014 109.146 16.1484 109.462 15.4992C109.611 15.1953 109.843 15.0039 110.217 15.0039C110.324 15.0039 110.468 15.0189 110.567 15.0602V15.6268C110.476 15.593 110.396 15.5855 110.324 15.5855C110.152 15.5855 110.053 15.6643 109.973 15.8031C109.744 16.2196 109.634 17.0376 109.135 17.3303V17.3453C109.363 17.4241 109.535 17.6568 109.737 18.0282L110.647 19.7018H109.916L109.127 18.1821C108.91 17.7731 108.731 17.623 108.59 17.623H107.885V19.698H107.252V15.0452Z" fill="white"/>
<path d="M111.97 17.3904C111.97 15.9795 112.953 15.0039 114.302 15.0039C115.666 15.0039 116.627 15.9983 116.627 17.3904C116.627 18.8387 115.621 19.7693 114.302 19.7693C112.961 19.7693 111.97 18.8312 111.97 17.3904ZM115.952 17.3904C115.952 16.3247 115.35 15.5405 114.302 15.5405C113.307 15.5405 112.644 16.2759 112.644 17.3904C112.644 18.5123 113.304 19.2327 114.302 19.2327C115.293 19.2327 115.952 18.5123 115.952 17.3904Z" fill="white"/>
<path d="M118.376 15.0467H118.963L120.255 16.9379C120.449 17.2193 120.571 17.3956 120.685 17.587H120.701C120.807 17.4031 120.937 17.193 121.116 16.9078L122.32 15.043H122.907V19.6958H122.274V16.8215C122.274 16.6039 122.274 16.3187 122.282 16.0861H122.274C122.183 16.2625 122.023 16.5026 121.935 16.6377L120.845 18.3487H120.529L119.332 16.6039C119.233 16.4613 119.104 16.2775 119.008 16.1011H118.993C119.008 16.3075 119.008 16.6077 119.008 16.8065V19.6958H118.372V15.0467H118.376Z" fill="white"/>
<path d="M124.879 15.0454H128.434V19.702H127.798V15.582H125.508V19.702H124.879V15.0454Z" fill="white"/>
<path d="M131.689 15.0317H132.162L133.999 19.6996H133.313L132.852 18.4763H131.015L130.565 19.6996H129.891L131.689 15.0317ZM132.65 17.966L132.204 16.7503C132.067 16.3563 131.998 16.1424 131.937 15.9736H131.922C131.872 16.1424 131.792 16.36 131.651 16.7578L131.205 17.966H132.65Z" fill="white"/>
<path d="M135.458 15.0454H136.098V17.0529H138.579V15.0454H139.208V19.702H138.579V17.5895H136.098V19.702H135.458V15.0454Z" fill="white"/>
<path d="M141.18 15.0454H141.812V17.8559C141.812 18.1823 141.812 18.4149 141.797 18.6626H141.812C141.969 18.4375 142.171 18.1485 142.453 17.7921L144.552 15.0454H145.17V19.6982H144.533V16.7827C144.533 16.445 144.541 16.2236 144.549 16.006H144.533C144.377 16.2311 144.175 16.5088 143.916 16.8465L141.728 19.6982H141.184V15.0454H141.18Z" fill="white"/>
<path d="M147.481 18.2161C147.667 17.8709 147.789 17.6795 147.984 17.5744V17.5594C147.431 17.3831 147.153 16.9516 147.153 16.4075C147.153 15.5032 147.82 15.0454 148.708 15.0454H150V19.6982H149.359V17.7696H148.643C148.498 17.7696 148.327 17.9159 148.121 18.3362L147.446 19.6982H146.707L147.481 18.2161ZM148.773 17.2555H149.359V15.5595H148.792C148.216 15.5595 147.808 15.8484 147.808 16.4337C147.808 17.0116 148.228 17.2555 148.773 17.2555Z" fill="white"/>
<path d="M12.8731 39.5796V24.0939H16.0819V30.2027H22.4346V24.0939H25.6395V39.5796H22.4346V33.2007H16.0819V39.5796H12.8731ZM27.8651 24.0939H37.5637V27.092H31.07V30.1276H36.3061V33.1219H31.07V36.5815H37.5599V39.5758H27.8612V24.0939H27.8651ZM43.5239 27.092H42.8037V31.7223C42.9066 31.7298 43.0094 31.7336 43.1123 31.7336H43.1162C44.6329 31.7336 46.2639 31.1257 46.2677 29.3922V29.3884V29.3847C46.2677 27.8612 44.9454 27.0883 43.5277 27.0883H43.5239V27.092ZM39.5987 39.5796V24.0939H43.5277H43.5315V24.0977C46.7136 24.0977 49.4727 26.0939 49.4765 29.4072V29.4109V29.4147C49.4727 32.7805 46.5345 34.7241 43.36 34.7241V34.7279H43.3562C43.1733 34.7279 42.9904 34.7204 42.8075 34.7204V39.5796H39.5987ZM54.3201 27.092V39.5796H51.1113V24.0939H59.2742L59.2704 27.0883H54.3201V27.092ZM62.3229 31.8724V31.8762C62.3229 33.2758 62.8907 34.5553 63.8282 35.4896C64.7657 36.4202 66.069 37.0055 67.54 37.0055V37.0018H67.5438V37.0055C68.9996 37.0055 70.3029 36.4202 71.2442 35.4896C72.1854 34.559 72.7609 33.2758 72.7609 31.8762V31.8724V31.8687C72.7609 30.5366 72.2388 29.2421 71.328 28.2815C70.4172 27.3247 69.1139 26.698 67.5438 26.698V26.7018H67.54H67.5362V26.698C65.9585 26.698 64.6514 27.3247 63.7482 28.2777C62.8374 29.2421 62.3229 30.5366 62.3229 31.8724ZM59.118 31.8574V31.8537V31.8499C59.118 29.3171 60.2193 27.2834 61.8237 25.8763C63.4205 24.4767 65.524 23.7075 67.5438 23.7075H67.5476C69.5636 23.7112 71.6672 24.4767 73.2639 25.8763C74.8683 27.2834 75.9696 29.3209 75.9696 31.8499V31.8537C75.9696 34.2364 74.9521 36.2738 73.3897 37.7185C71.831 39.1556 69.7274 39.9998 67.5476 39.9998H67.5438H67.54C65.3602 39.9998 63.2566 39.1556 61.7018 37.7185C60.1355 36.2776 59.118 34.2363 59.118 31.8574ZM80.4779 27.092V39.5796H77.2691V24.0939H86.0875L86.0799 27.0883H80.4779V27.092ZM92.8403 32.1388L91.5142 29.4222L90.1727 32.1388H92.8403ZM94.1894 35.0018H88.8237L86.56 39.5796H83.1074L91.5599 22.897L99.9476 39.5796H96.4226L94.1894 35.0018ZM104.425 27.047H103.705V31.6773C103.808 31.6848 103.911 31.6886 104.014 31.6886H104.021C105.538 31.6886 107.169 31.0807 107.169 29.3509V29.3471V29.3434C107.169 27.82 105.847 27.047 104.429 27.047V27.0507H104.425V27.047ZM100.496 39.5796V24.0489H104.425H104.429C107.611 24.0489 110.37 26.0489 110.37 29.3621H110.374V29.3659H110.37C110.367 32.7317 107.432 34.6754 104.254 34.6754V34.6791H104.25C104.067 34.6791 103.884 34.6791 103.701 34.6716V39.5796H100.496ZM117.866 32.1388L116.54 29.4222L115.199 32.1388H117.866ZM119.215 35.0018H113.85L111.586 39.5796H108.137L116.59 22.897L124.993 39.5796H121.46L119.215 35.0018ZM125.522 39.5796V24.0939H128.731V30.2027H135.084V24.0939H138.293V39.5796H135.084V33.2007H128.731V39.5796H125.522ZM143.468 39.5796V27.0845H140.179L140.164 24.0939H149.98V27.092L146.676 27.0845V39.5796H143.468ZM0.00762336 28.1126L0 28.0976V24.4842C1.11277 23.9514 2.35511 23.6887 3.59364 23.685H3.60127H3.60508C5.53719 23.685 7.53789 24.3829 9.05462 25.7487C10.5752 27.1145 11.6117 29.1483 11.6117 31.8049V31.8086V31.8124C11.6117 34.4202 10.6285 36.4652 9.14989 37.861C7.67127 39.2569 5.69344 39.9998 3.71179 39.9998C2.37417 39.9998 1.13945 39.6997 0.00380877 39.1406V35.5384C1.12801 36.3676 2.25985 36.9755 3.71179 36.9755C6.02117 36.9755 7.82371 35.2757 8.23528 33.1294H1.80635V30.1989H8.22004C7.73606 28.0001 5.73535 26.6755 3.57078 26.6718V26.6755H3.55935C2.11503 26.683 1.08991 27.2496 0.00762336 28.1126Z" fill="white"/>
</svg>
