<svg width="82" height="40" viewBox="0 0 82 40" fill="none" xmlns="http://www.w3.org/2000/svg">
<g clip-path="url(#clip0)">
<path d="M2.49685 34.894C2.5629 34.894 2.61574 34.9091 2.65538 34.954C2.69501 34.9989 2.72143 35.0588 2.74785 35.1338L4.30673 39.6723C4.30673 39.6873 4.30673 39.7023 4.30673 39.7172C4.30673 39.7771 4.29352 39.8221 4.25388 39.852C4.21425 39.882 4.17462 39.9119 4.13499 39.9119H3.67261C3.59334 39.9119 3.52729 39.897 3.50087 39.852C3.46124 39.8071 3.44803 39.7622 3.43481 39.7322L3.15739 38.9383H1.14934L0.871914 39.7472C0.858706 39.7922 0.832284 39.8221 0.805862 39.867C0.766227 39.9119 0.713383 39.927 0.634118 39.927H0.171741C0.118897 39.927 0.0792649 39.9119 0.0528431 39.867C0.0264213 39.8221 0 39.7771 0 39.7322C0 39.7172 0 39.7023 0 39.6873L1.55888 35.1487C1.5853 35.0738 1.61172 35.0139 1.65135 34.969C1.69098 34.924 1.73062 34.9091 1.80989 34.9091H2.49685V34.894ZM2.84033 38.0546L2.14016 36.0025L1.45319 38.0546H2.84033Z" fill="white"/>
<path d="M5.90028 39.9269C5.84741 39.9269 5.80778 39.912 5.78134 39.867C5.75495 39.8221 5.72852 39.7771 5.72852 39.7322V35.0888C5.72852 35.0289 5.74171 34.9839 5.78134 34.954C5.82097 34.924 5.8606 34.894 5.90028 34.894H7.77619C8.04041 34.894 8.27819 34.939 8.44996 35.0439C8.63491 35.1338 8.78019 35.2535 8.88589 35.4033C8.99158 35.5381 9.07084 35.7029 9.12367 35.8677C9.17654 36.0325 9.20298 36.1822 9.20298 36.3321C9.20298 36.4818 9.18973 36.6016 9.1501 36.7215C9.11047 36.8263 9.07084 36.9312 9.01802 37.0061C8.96515 37.081 8.92552 37.1409 8.87269 37.2008C8.81982 37.2607 8.79343 37.2907 8.7538 37.3057C8.88589 37.4105 9.00478 37.5453 9.11047 37.74C9.21617 37.9198 9.26899 38.1594 9.26899 38.444C9.26899 38.6238 9.24261 38.8035 9.17654 38.9833C9.12367 39.163 9.03121 39.3278 8.91232 39.4626C8.79343 39.6124 8.64811 39.7172 8.47634 39.8221C8.30463 39.912 8.10648 39.9569 7.88189 39.9569H5.90028V39.9269ZM8.33107 36.347C8.33107 36.1673 8.27819 36.0325 8.17249 35.9426C8.06685 35.8527 7.90827 35.7928 7.69693 35.7928H6.57399V36.9012H7.69693C7.92152 36.9012 8.08004 36.8563 8.17249 36.7664C8.27819 36.6616 8.33107 36.5268 8.33107 36.347ZM6.57399 39.0282H7.74975C7.98759 39.0282 8.14611 38.9683 8.25181 38.8634C8.35745 38.7436 8.41033 38.5939 8.41033 38.4141C8.41033 38.2343 8.35745 38.0846 8.23856 37.9647C8.13286 37.8449 7.96115 37.785 7.73656 37.785H6.5608V39.0282H6.57399Z" fill="white"/>
<path d="M12.6868 34.894C12.7529 34.894 12.8057 34.9091 12.8454 34.954C12.885 34.9989 12.9114 35.0588 12.9378 35.1338L14.4967 39.6723C14.4967 39.6873 14.4967 39.7023 14.4967 39.7172C14.4967 39.7771 14.4835 39.8221 14.4439 39.852C14.4042 39.897 14.3646 39.9119 14.325 39.9119H13.8626C13.7833 39.9119 13.7173 39.897 13.6909 39.852C13.6512 39.8071 13.638 39.7622 13.6248 39.7322L13.3474 38.9383H11.3261L11.0487 39.7322C11.0355 39.7771 11.009 39.8071 10.9826 39.852C10.943 39.897 10.8902 39.9119 10.8109 39.9119H10.3485C10.2956 39.9119 10.256 39.897 10.2296 39.852C10.19 39.8071 10.1768 39.7622 10.1768 39.7172C10.1768 39.7023 10.1768 39.6873 10.1768 39.6723L11.7489 35.1338C11.7753 35.0588 11.8017 34.9989 11.8413 34.954C11.881 34.9091 11.9206 34.894 11.9998 34.894H12.6868ZM13.0303 38.0546L12.3301 36.0025L11.6299 38.0546H13.0303Z" fill="white"/>
<path d="M19.3684 34.894C19.4213 34.894 19.461 34.9091 19.4874 34.954C19.527 34.9989 19.5402 35.0439 19.5402 35.0888V39.7322C19.5402 39.7922 19.527 39.8371 19.4874 39.867C19.4478 39.9119 19.4081 39.927 19.3684 39.927H18.8533C18.8004 39.927 18.7607 39.9119 18.7344 39.867C18.7079 39.8221 18.6815 39.7771 18.6815 39.7322V37.8299H16.7659V39.7322C16.7659 39.7922 16.7527 39.8371 16.7131 39.867C16.6734 39.9119 16.6338 39.927 16.5942 39.927H16.079C16.0261 39.927 15.9865 39.9119 15.9601 39.882C15.9205 39.8371 15.9072 39.7922 15.9072 39.7322V35.0888C15.9072 35.0289 15.9205 34.9839 15.9601 34.954C15.9997 34.9091 16.0394 34.894 16.079 34.894H16.5942C16.6471 34.894 16.6867 34.9091 16.7131 34.954C16.7527 34.9989 16.7659 35.0439 16.7659 35.0888V36.9312H18.6815V35.0888C18.6815 35.0289 18.6947 34.9839 18.7344 34.954C18.774 34.924 18.8136 34.894 18.8533 34.894H19.3684Z" fill="white"/>
<path d="M23.8976 38.3223C23.9108 38.2623 23.924 38.2174 23.9636 38.1875C24.0033 38.1575 24.0429 38.1425 24.0825 38.1425H24.5978C24.6506 38.1425 24.6902 38.1575 24.7166 38.2024C24.7563 38.2324 24.7695 38.2773 24.7695 38.3372C24.7563 38.532 24.7166 38.7267 24.6374 38.9214C24.5713 39.1161 24.4524 39.2959 24.3071 39.4606C24.1486 39.6254 23.9636 39.7452 23.7258 39.8501C23.4881 39.9549 23.2106 39.9999 22.8804 39.9999C22.5897 39.9999 22.3255 39.9549 22.1009 39.8501C21.8763 39.7452 21.6914 39.6104 21.5328 39.4457C21.3743 39.2659 21.2554 39.0562 21.1629 38.8165C21.0837 38.5769 21.0308 38.3073 21.0044 38.0227C20.9912 37.8429 20.9912 37.6333 20.9912 37.4235C20.9912 37.2139 20.9912 37.0041 21.0044 36.8244C21.0177 36.5398 21.0705 36.2702 21.1629 36.0305C21.2554 35.7909 21.3743 35.5811 21.5328 35.4014C21.6914 35.2216 21.8763 35.0869 22.1009 34.997C22.3255 34.8921 22.5765 34.8472 22.8804 34.8472C23.2106 34.8472 23.4881 34.8921 23.7258 34.997C23.9636 35.1018 24.1486 35.2216 24.3071 35.3864C24.4656 35.5512 24.5713 35.7309 24.6374 35.9257C24.7166 36.1204 24.7563 36.3151 24.7695 36.5098C24.7695 36.5698 24.7563 36.6147 24.7166 36.6596C24.677 36.6896 24.6374 36.7046 24.5978 36.7046H24.0825C24.0429 36.7046 24.0033 36.6896 23.9636 36.6596C23.924 36.6297 23.8976 36.5847 23.8976 36.5098C23.8844 36.4199 23.8579 36.3151 23.8051 36.2252C23.7523 36.1353 23.6994 36.0455 23.6201 35.9856C23.5409 35.9257 23.4352 35.8508 23.3163 35.8058C23.1974 35.7609 23.0521 35.7309 22.8804 35.7309C22.7086 35.7309 22.5765 35.7609 22.4444 35.8208C22.3255 35.8807 22.2198 35.9556 22.1273 36.0455C22.0481 36.1353 21.982 36.2552 21.9424 36.39C21.9028 36.5248 21.8763 36.6596 21.8631 36.8094C21.8499 36.9892 21.8499 37.1988 21.8499 37.4086C21.8499 37.6182 21.8499 37.828 21.8631 38.0077C21.8763 38.1575 21.9028 38.3073 21.9424 38.4421C21.9952 38.5769 22.0481 38.6817 22.1273 38.7866C22.2066 38.8765 22.3123 38.9664 22.4444 39.0113C22.5633 39.0712 22.7086 39.1011 22.8804 39.1011C23.0521 39.1011 23.1842 39.0862 23.3163 39.0412C23.4352 38.9963 23.5409 38.9364 23.6201 38.8615C23.6994 38.7866 23.7655 38.7117 23.8183 38.6218C23.8712 38.532 23.8844 38.4271 23.8976 38.3223Z" fill="white"/>
<path d="M32.0911 34.894C32.144 34.894 32.1836 34.9091 32.21 34.954C32.2497 34.9989 32.2629 35.0439 32.2629 35.0888V39.7322C32.2629 39.7922 32.2497 39.8371 32.21 39.867C32.1704 39.9119 32.1307 39.927 32.0911 39.927H31.5759C31.5231 39.927 31.4834 39.9119 31.457 39.867C31.4306 39.8221 31.4041 39.7771 31.4041 39.7322V37.8299H29.4886V39.7322C29.4886 39.7922 29.4754 39.8371 29.4358 39.867C29.3962 39.9119 29.3565 39.927 29.3168 39.927H28.8016C28.7488 39.927 28.7091 39.9119 28.6828 39.882C28.6431 39.8371 28.6299 39.7922 28.6299 39.7322V35.0888C28.6299 35.0289 28.6431 34.9839 28.6828 34.954C28.7224 34.9091 28.762 34.894 28.8016 34.894H29.3168C29.3697 34.894 29.4093 34.9091 29.4358 34.954C29.4754 34.9989 29.4886 35.0439 29.4886 35.0888V36.9312H31.4041V35.0888C31.4041 35.0289 31.4174 34.9839 31.457 34.954C31.4967 34.924 31.5363 34.894 31.5759 34.894H32.0911Z" fill="white"/>
<path d="M35.8962 34.894C35.9623 34.894 36.0152 34.9091 36.0548 34.954C36.0944 34.9989 36.1208 35.0588 36.1472 35.1338L37.7061 39.6723C37.7061 39.6873 37.7061 39.7023 37.7061 39.7172C37.7061 39.7771 37.6929 39.8221 37.6533 39.852C37.6137 39.897 37.574 39.9119 37.5344 39.9119H37.072C36.9927 39.9119 36.9267 39.897 36.9003 39.852C36.8606 39.8071 36.8474 39.7622 36.8342 39.7322L36.5568 38.9383H34.5487L34.2713 39.7322C34.2581 39.7771 34.2317 39.8071 34.2053 39.852C34.1656 39.897 34.1128 39.9119 34.0335 39.9119H33.5711C33.5183 39.9119 33.4787 39.897 33.4522 39.852C33.4126 39.8071 33.3994 39.7622 33.3994 39.7172C33.3994 39.7023 33.3994 39.6873 33.3994 39.6723L34.9583 35.1338C34.9847 35.0588 35.0111 34.9989 35.0507 34.954C35.0904 34.9091 35.13 34.894 35.2093 34.894H35.8962ZM36.2529 38.0546L35.5527 36.0025L34.8526 38.0546H36.2529Z" fill="white"/>
<path d="M44.0205 34.894C44.0733 34.894 44.113 34.9091 44.1394 34.954C44.179 34.9989 44.1922 35.0439 44.1922 35.0888V35.5981C44.1922 35.658 44.179 35.7029 44.1394 35.7329C44.0997 35.7778 44.0601 35.7928 44.0205 35.7928H42.8843V39.7322C42.8843 39.7922 42.8711 39.8371 42.8315 39.867C42.7919 39.9119 42.7523 39.927 42.7126 39.927H42.1974C42.1446 39.927 42.1049 39.9119 42.0785 39.867C42.0389 39.8221 42.0257 39.7771 42.0257 39.7322V35.7928H40.8895C40.8367 35.7928 40.797 35.7778 40.7706 35.7329C40.731 35.688 40.7178 35.643 40.7178 35.5981V35.0888C40.7178 35.0289 40.731 34.9839 40.7706 34.954C40.8103 34.9091 40.8499 34.894 40.8895 34.894H44.0205Z" fill="white"/>
<path d="M45.9784 39.9269C45.9256 39.9269 45.886 39.912 45.8595 39.867C45.8199 39.8221 45.8066 39.7771 45.8066 39.7322V35.0888C45.8066 35.0289 45.8199 34.9839 45.8595 34.954C45.8991 34.9091 45.9388 34.894 45.9784 34.894H47.8543C48.1185 34.894 48.3563 34.939 48.5281 35.0439C48.713 35.1338 48.8584 35.2535 48.964 35.4033C49.0697 35.5381 49.149 35.7029 49.2018 35.8677C49.2547 36.0325 49.2811 36.1822 49.2811 36.3321C49.2811 36.4818 49.2679 36.6016 49.2282 36.7215C49.1886 36.8263 49.149 36.9312 49.0962 37.0061C49.0433 37.081 49.0036 37.1409 48.9508 37.2008C48.898 37.2607 48.8716 37.2907 48.8319 37.3057C48.964 37.4105 49.0829 37.5453 49.1886 37.74C49.2943 37.9198 49.3471 38.1594 49.3471 38.444C49.3471 38.6238 49.3207 38.8035 49.2547 38.9833C49.2018 39.163 49.1093 39.3278 48.9905 39.4626C48.8716 39.6124 48.7262 39.7172 48.5545 39.8221C48.3828 39.912 48.1846 39.9569 47.96 39.9569H45.9784V39.9269ZM48.4224 36.347C48.4224 36.1673 48.3696 36.0325 48.2639 35.9426C48.1582 35.8527 47.9996 35.7928 47.7883 35.7928H46.6654V36.9012H47.7883C48.0128 36.9012 48.1714 36.8563 48.2639 36.7664C48.3696 36.6616 48.4224 36.5268 48.4224 36.347ZM46.6654 39.0282H47.8411C48.0789 39.0282 48.2374 38.9683 48.3431 38.8634C48.4488 38.7436 48.5016 38.5939 48.5016 38.4141C48.5016 38.2343 48.4488 38.0846 48.3299 37.9647C48.2242 37.8449 48.0525 37.785 47.8279 37.785H46.6522V39.0282H46.6654Z" fill="white"/>
<path d="M50.6065 36.7666C50.6197 36.4969 50.6593 36.2423 50.7386 36.0176C50.8179 35.778 50.9367 35.5683 51.0821 35.4035C51.2406 35.2238 51.4256 35.089 51.6501 34.9841C51.8747 34.8792 52.1521 34.8193 52.456 34.8193C52.7598 34.8193 53.0373 34.8643 53.2618 34.9691C53.4864 35.074 53.6846 35.2088 53.8299 35.3885C53.9885 35.5683 54.0941 35.778 54.1734 36.0027C54.2527 36.2423 54.3055 36.4969 54.3185 36.7666C54.3185 36.8564 54.3185 36.9613 54.3185 37.0662C54.3185 37.171 54.3185 37.2909 54.3185 37.4107C54.3185 37.5305 54.3185 37.6353 54.3185 37.7552C54.3185 37.86 54.3185 37.9649 54.3185 38.0547C54.3055 38.3244 54.2659 38.579 54.1734 38.8187C54.0941 39.0583 53.9885 39.253 53.8299 39.4328C53.6714 39.6125 53.4864 39.7474 53.2486 39.8372C53.0241 39.9421 52.7466 39.987 52.4428 39.987C52.1258 39.987 51.8615 39.9421 51.6369 39.8372C51.4124 39.7324 51.2142 39.5976 51.0689 39.4328C50.9104 39.253 50.8047 39.0434 50.7254 38.8187C50.6461 38.579 50.6065 38.3244 50.5933 38.0547C50.5933 37.9649 50.5801 37.86 50.5801 37.7552C50.5801 37.6503 50.5801 37.5305 50.5801 37.4107C50.5801 37.2909 50.5801 37.171 50.5801 37.0662C50.5933 36.9613 50.6065 36.8564 50.6065 36.7666ZM53.4732 36.8115C53.46 36.467 53.3543 36.1974 53.1694 36.0176C52.9977 35.8229 52.7598 35.7331 52.456 35.7331C52.1521 35.7331 51.9275 35.8229 51.7426 36.0176C51.5709 36.1974 51.4652 36.467 51.452 36.8115C51.4387 36.9913 51.4387 37.201 51.4387 37.4257C51.4387 37.6503 51.4387 37.8451 51.452 38.0248C51.4652 38.3693 51.5709 38.6389 51.7426 38.8187C51.9275 38.9984 52.1654 39.1033 52.456 39.1033C52.7466 39.1033 52.9844 39.0134 53.1694 38.8187C53.3543 38.6389 53.4468 38.3693 53.4732 38.0248C53.4864 37.8451 53.4864 37.6353 53.4864 37.4257C53.4864 37.186 53.4864 36.9913 53.4732 36.8115Z" fill="white"/>
<path d="M57.7151 34.564C57.543 34.564 57.3845 34.5341 57.2656 34.4741C57.1467 34.4142 57.0414 34.3394 56.9751 34.2495C56.9089 34.1596 56.8562 34.0547 56.8166 33.9349C56.79 33.8151 56.777 33.7102 56.777 33.5904C56.777 33.5454 56.79 33.5155 56.8036 33.5005C56.8296 33.4706 56.8562 33.4556 56.8959 33.4556H57.2525C57.2922 33.4556 57.3188 33.4706 57.3448 33.5005C57.3714 33.5305 57.3714 33.5605 57.3714 33.5904C57.3714 33.6953 57.398 33.7852 57.4507 33.8451C57.5033 33.9049 57.5962 33.9499 57.7151 33.9499C57.834 33.9499 57.9132 33.9199 57.9659 33.8451C58.0185 33.7852 58.0582 33.6953 58.0582 33.5904C58.0582 33.5454 58.0717 33.5155 58.0848 33.5005C58.1114 33.4706 58.1374 33.4556 58.1771 33.4556H58.5337C58.5734 33.4556 58.6 33.4706 58.6266 33.5005C58.6526 33.5305 58.6526 33.5605 58.6526 33.5904C58.6526 33.7102 58.6396 33.8151 58.6 33.9349C58.5734 34.0547 58.5207 34.1596 58.4414 34.2495C58.3752 34.3394 58.2699 34.4142 58.151 34.4741C58.0451 34.5341 57.8866 34.564 57.7151 34.564ZM56.5919 39.9264C56.6581 39.9264 56.7243 39.9114 56.7504 39.8665C56.79 39.8216 56.8166 39.7916 56.8296 39.7617L58.6 36.7659V39.7317C58.6 39.7916 58.613 39.8366 58.6526 39.8665C58.6922 39.9114 58.7319 39.9264 58.7715 39.9264H59.2867C59.3399 39.9264 59.3795 39.9114 59.4056 39.8665C59.4452 39.8216 59.4588 39.7767 59.4588 39.7317V35.0883C59.4588 35.0283 59.4452 34.9835 59.4056 34.9535C59.366 34.9085 59.3263 34.8936 59.2867 34.8936H58.8508C58.7851 34.8936 58.7188 34.9085 58.6922 34.9535C58.6662 34.9984 58.6266 35.0283 58.613 35.0583L56.8432 38.0541V35.0883C56.8432 35.0283 56.8296 34.9835 56.79 34.9535C56.7504 34.9085 56.7107 34.8936 56.6711 34.8936H56.1559C56.1033 34.8936 56.0636 34.9085 56.037 34.9535C56.0104 34.9984 55.9844 35.0434 55.9844 35.0883V39.7317C55.9844 39.7916 55.9974 39.8366 56.037 39.8665C56.0767 39.8965 56.1163 39.9264 56.1559 39.9264H56.5919Z" fill="white"/>
<path d="M63.4714 39.9269C63.4187 39.9269 63.3791 39.912 63.3525 39.867C63.3128 39.8221 63.2998 39.7771 63.2998 39.7322V35.0888C63.2998 35.0289 63.3128 34.9839 63.3525 34.954C63.3921 34.9091 63.4317 34.894 63.4714 34.894H65.3475C65.6119 34.894 65.8497 34.939 66.0212 35.0439C66.2064 35.1338 66.3513 35.2535 66.4572 35.4033C66.563 35.5381 66.6423 35.7029 66.695 35.8677C66.7476 36.0325 66.7742 36.1822 66.7742 36.3321C66.7742 36.4818 66.7612 36.6016 66.7216 36.7215C66.6819 36.8263 66.6423 36.9312 66.5891 37.0061C66.5364 37.081 66.4968 37.1409 66.4442 37.2008C66.3909 37.2607 66.3649 37.2907 66.3253 37.3057C66.4572 37.4105 66.5761 37.5453 66.6819 37.74C66.7873 37.9198 66.8405 38.1594 66.8405 38.444C66.8405 38.6238 66.8139 38.8035 66.7476 38.9833C66.695 39.163 66.6027 39.3278 66.4838 39.4626C66.3649 39.6124 66.2194 39.7172 66.0479 39.8221C65.8758 39.912 65.6776 39.9569 65.4529 39.9569H63.4714V39.9269ZM65.9154 36.347C65.9154 36.1673 65.8627 36.0325 65.7569 35.9426C65.6516 35.8527 65.4925 35.7928 65.2813 35.7928H64.1586V36.9012H65.2813C65.5061 36.9012 65.6646 36.8563 65.7569 36.7664C65.8627 36.6616 65.9154 36.5268 65.9154 36.347ZM64.1586 39.0282H65.334C65.5723 39.0282 65.7308 38.9683 65.8361 38.8634C65.942 38.7436 65.9947 38.5939 65.9947 38.4141C65.9947 38.2343 65.942 38.0846 65.8231 37.9647C65.7172 37.8449 65.5457 37.785 65.3209 37.785H64.1451V39.0282H64.1586Z" fill="white"/>
<path d="M71.7562 39.6274C71.7828 39.6573 71.7959 39.6723 71.7959 39.6873C71.7959 39.7023 71.7959 39.7172 71.7959 39.7322C71.7959 39.7922 71.7828 39.8371 71.7432 39.867C71.7036 39.897 71.664 39.927 71.6243 39.927H71.0163C70.937 39.927 70.8578 39.897 70.8182 39.852C70.7655 39.7922 70.7389 39.7622 70.7259 39.7622L69.246 37.8599V39.7322C69.246 39.7922 69.233 39.8371 69.1933 39.867C69.1537 39.897 69.1141 39.927 69.0744 39.927H68.5592C68.5066 39.927 68.467 39.9119 68.4404 39.867C68.4007 39.8221 68.3877 39.7771 68.3877 39.7322V35.0888C68.3877 35.0289 68.4007 34.9839 68.4404 34.954C68.48 34.9091 68.5196 34.894 68.5592 34.894H69.0744C69.1271 34.894 69.1667 34.9091 69.1933 34.954C69.2199 34.9989 69.246 35.0439 69.246 35.0888V36.7814L70.6336 35.0588C70.6732 35.0139 70.7128 34.969 70.7525 34.939C70.7921 34.9091 70.8448 34.894 70.911 34.894H71.4919C71.5451 34.894 71.5847 34.9091 71.6108 34.954C71.6374 34.9989 71.664 35.0439 71.664 35.0888C71.664 35.1338 71.6504 35.1637 71.6243 35.1936L69.9197 37.3057L71.7562 39.6274Z" fill="white"/>
<path d="M72.8544 35.1487C72.8408 35.1338 72.8408 35.1038 72.8408 35.0888C72.8408 35.0439 72.8544 34.9989 72.894 34.954C72.9337 34.9091 72.9733 34.894 73.0129 34.894H73.4885C73.5677 34.894 73.634 34.9091 73.66 34.954C73.6997 34.9839 73.7263 35.0289 73.7529 35.0738L74.7832 37.2907L75.8136 35.0738C75.8397 35.0289 75.8663 34.9839 75.8929 34.954C75.9325 34.9091 75.9982 34.894 76.078 34.894H76.5536C76.6062 34.894 76.6458 34.9091 76.6724 34.954C76.7121 34.9989 76.7251 35.0439 76.7251 35.0888C76.7251 35.1187 76.7251 35.1338 76.7121 35.1487L75.166 38.459C75.0737 38.6537 74.9814 38.8485 74.8886 39.0132C74.8093 39.193 74.704 39.3428 74.5981 39.4776C74.4923 39.6124 74.3734 39.7172 74.2414 39.8071C74.1095 39.882 73.9374 39.927 73.7529 39.927H73.2773C73.2241 39.927 73.1845 39.9119 73.1579 39.867C73.1182 39.8221 73.1052 39.7771 73.1052 39.7322V39.2229C73.1052 39.163 73.1182 39.1181 73.1579 39.0881C73.1975 39.0432 73.2371 39.0282 73.2773 39.0282H73.634C73.7659 39.0282 73.8848 38.9683 73.9771 38.8485C74.0699 38.7287 74.1888 38.5339 74.3077 38.2942L72.8544 35.1487Z" fill="white"/>
<path d="M80.5208 38.3223C80.5338 38.2623 80.5469 38.2174 80.5865 38.1875C80.6261 38.1575 80.6658 38.1425 80.7054 38.1425H81.2206C81.2738 38.1425 81.3134 38.1575 81.3395 38.2024C81.3796 38.2324 81.3927 38.2773 81.3927 38.3372C81.3796 38.532 81.34 38.7267 81.2602 38.9214C81.1945 39.1161 81.0756 39.2959 80.9301 39.4606C80.7716 39.6254 80.5865 39.7452 80.3487 39.8501C80.1109 39.9549 79.8335 39.9999 79.5035 39.9999C79.213 39.9999 78.9486 39.9549 78.7239 39.8501C78.4997 39.7452 78.3146 39.6104 78.156 39.4457C77.9975 39.2659 77.8786 39.0562 77.7858 38.8165C77.7065 38.5769 77.6539 38.3073 77.6273 38.0227C77.6143 37.8429 77.6143 37.6333 77.6143 37.4235C77.6143 37.2139 77.6143 37.0041 77.6273 36.8244C77.6409 36.5398 77.6935 36.2702 77.7858 36.0305C77.8786 35.7909 77.9975 35.5811 78.156 35.4014C78.3146 35.2216 78.4997 35.0869 78.7239 34.997C78.9486 34.8921 79.1995 34.8472 79.5035 34.8472C79.8335 34.8472 80.1109 34.8921 80.3487 34.997C80.5865 35.1018 80.7716 35.2216 80.9301 35.3864C81.0887 35.5512 81.1945 35.7309 81.2602 35.9257C81.34 36.1204 81.3796 36.3151 81.3927 36.5098C81.3927 36.5698 81.3796 36.6147 81.3395 36.6596C81.2998 36.6896 81.2602 36.7046 81.2206 36.7046H80.7054C80.6658 36.7046 80.6261 36.6896 80.5865 36.6596C80.5469 36.6297 80.5208 36.5847 80.5208 36.5098C80.5072 36.4199 80.4812 36.3151 80.428 36.2252C80.3753 36.1353 80.3227 36.0455 80.2434 35.9856C80.1642 35.9107 80.0583 35.8508 79.9394 35.8058C79.8205 35.7609 79.675 35.7309 79.5035 35.7309C79.3449 35.7309 79.1995 35.7609 79.0675 35.8208C78.9486 35.8807 78.8428 35.9556 78.7505 36.0455C78.6712 36.1353 78.605 36.2552 78.5654 36.39C78.5257 36.5248 78.4997 36.6596 78.4861 36.8094C78.4731 36.9892 78.4731 37.1988 78.4731 37.4086C78.4731 37.6182 78.4731 37.828 78.4861 38.0077C78.4997 38.1575 78.5257 38.3073 78.5654 38.4421C78.6186 38.5769 78.6712 38.6817 78.7505 38.7866C78.8298 38.8765 78.9356 38.9664 79.0675 39.0113C79.1864 39.0712 79.3319 39.1011 79.5035 39.1011C79.662 39.1011 79.8075 39.0862 79.9394 39.0412C80.0583 38.9963 80.1642 38.9364 80.2434 38.8615C80.3227 38.7866 80.3884 38.7117 80.4416 38.6218C80.4942 38.532 80.5072 38.4271 80.5208 38.3223Z" fill="white"/>
<path d="M53.5471 24.9929C53.4811 27.03 52.4902 28.1534 51.4466 28.1534C50.0198 28.1534 49.095 26.8203 47.4173 23.3153C46.6775 24.3638 45.9905 25.3524 45.4356 26.1163C44.5637 27.3146 43.7579 28.0785 42.7802 28.0785C41.7234 28.0785 41.3535 27.1648 41.3535 25.9665C41.3535 23.3003 41.9744 14.8822 41.4724 11.3023C41.9612 10.9578 42.7142 10.748 43.2691 10.748C45.0658 10.748 45.6206 12.1561 45.6206 14.5377C45.6206 16.1554 45.4356 19.2411 45.2507 20.7089C48.0382 16.1404 49.7027 12.8451 50.3236 10.8829C52.2392 10.5384 53.23 11.5869 53.23 13.2046C53.23 14.8822 52.3053 16.4999 49.8216 19.7953C51.3805 22.8959 52.4902 24.5735 53.5471 24.9929Z" fill="white"/>
<path d="M27.6699 19.5998C27.6699 14.4022 29.9554 10.8223 33.8658 10.8223C37.763 10.8223 39.8107 14.4022 39.8107 19.3901C39.8107 24.5877 37.6441 28.3025 33.6148 28.3025C30.0875 28.3025 27.6699 25.2019 27.6699 19.5998ZM31.4482 19.6597C31.4482 22.6705 32.188 24.363 33.7337 24.363C35.2794 24.363 36.0192 22.5357 36.0192 19.2403C36.0192 16.7838 35.5304 14.7467 33.8526 14.7467C32.2541 14.7467 31.4482 16.5741 31.4482 19.6597Z" fill="white"/>
<path d="M66.9048 24.9922C66.8391 27.0294 65.8484 28.1528 64.8044 28.1528C63.3778 28.1528 62.5189 26.8197 61.026 23.3146C60.2866 24.3632 59.5993 25.2769 59.1108 26.0558C58.2389 27.2541 57.4463 28.018 56.455 28.018C55.3986 28.018 55.0283 27.1042 55.0283 25.9059C55.0283 23.2398 55.6494 14.8217 55.1472 11.2417C55.6363 10.8972 56.3893 10.6875 56.9441 10.6875C58.7405 10.6875 59.2953 12.0955 59.2953 14.4771C59.2953 16.0949 59.1108 19.1805 58.9256 20.6484C61.6997 16.0799 63.3647 12.7846 63.9852 10.8223C65.9011 10.4778 66.8918 11.5264 66.8918 13.1441C66.8918 14.8217 65.9011 16.4394 63.4836 19.8096C64.8571 22.8203 65.8484 24.6477 66.9048 24.9922Z" fill="white"/>
<path d="M80.0416 23.4502C80.4113 25.4873 80.9661 27.1649 81.1513 27.5843C80.7153 28.0037 80.0416 28.2883 79.1697 28.2883C77.1877 28.2883 76.6329 27.09 76.197 23.7198C75.0216 23.7947 73.8458 23.8546 72.7888 23.9295C72.234 27.2997 71.6129 28.2134 69.9354 28.2134C69.1292 28.2134 68.4555 27.9288 68.0723 27.2997C68.3763 26.6706 68.6933 25.3375 69.2481 22.3867C69.7373 19.5856 70.5429 15.796 71.2959 13.8188C71.9831 12.0663 72.9077 10.8081 74.9424 10.8081C78.1654 10.8081 78.7734 13.7589 79.5264 19.9301C80.332 19.7954 80.8869 19.7205 81.2571 19.5857C81.6534 21.5629 81.3364 22.9559 80.0416 23.4502ZM73.4098 20.4395C74.2817 20.3646 75.0743 20.3047 75.8799 20.3047C75.5764 16.8595 75.444 14.6876 74.9554 14.1933C74.5325 14.5378 73.9777 16.8595 73.4098 20.4395Z" fill="white"/>
<path d="M3.39518 28.5585C5.56177 28.5136 6.59221 26.4914 6.48651 22.4022C6.48651 22.0876 6.44688 20.0655 6.38081 16.2909C6.34118 14.7331 6.48651 13.5647 6.76392 12.8307C7.00175 13.3401 7.31879 14.3137 7.72834 15.7067C8.11145 17.1446 8.48136 18.313 8.82484 19.2567C9.12869 20.2303 9.68351 21.084 10.4102 21.9079C11.1367 22.7317 11.9161 23.1212 12.8541 23.0763C13.7525 23.0313 14.6111 22.2974 15.4699 20.8145C16.3286 19.3315 17.0156 17.6989 17.5704 15.9463C18.1252 14.1938 18.7065 12.5612 19.3539 11.0782C19.9748 9.59532 20.5164 8.86135 20.9656 8.86135C21.0713 9.59532 20.9656 11.902 20.5825 15.7516C20.1994 19.6011 20.0276 22.522 20.1069 24.4393C20.1729 26.117 20.8995 27.2403 22.2999 27.8245C23.7135 28.4087 24.942 28.169 26.0782 27.1205C25.9064 25.5627 25.7743 23.6155 25.7347 21.2788C25.6951 20.0655 25.7743 18.2381 25.8668 15.7516C25.9725 13.2651 25.9989 11.4677 25.9725 10.3443C25.8404 5.20655 24.6382 2.31565 20.8202 2.48042C19.3406 2.52535 18.2441 3.21437 17.2798 4.93694C16.7645 5.83566 16.3814 6.61456 16.0776 7.34852C15.7737 8.08251 15.351 9.146 14.8357 10.584C14.3205 12.0219 13.8714 13.1902 13.5279 14.0141C13.4222 13.7444 13.2505 13.1902 13.0126 12.3065C12.4975 10.554 12.22 9.6253 11.533 7.82784C10.8461 6.03039 10.1988 4.98187 9.26077 3.78357C8.3096 2.55531 7.14708 1.97114 5.87881 2.0011C4.3992 2.0011 3.15739 2.7051 2.19299 4.14306C2.15336 4.80213 2.02126 6.40486 1.80988 8.96625C1.59851 11.5725 1.42677 13.7595 1.25503 15.512C1.08329 17.3094 0.911545 19.2866 0.673754 21.4286C0.449168 23.6155 0.211373 25.2931 0 26.4165C0.383114 27.9443 1.50603 28.6483 3.39518 28.5585Z" fill="white"/>
</g>
<defs>
<clipPath id="clip0">
<rect width="81.4172" height="40" fill="white"/>
</clipPath>
</defs>
</svg>
