<svg width="284" height="55" viewBox="0 0 284 55" fill="none" xmlns="http://www.w3.org/2000/svg">
<path d="M127.902 27.6572C127.902 38.3905 121.348 43.4629 113.151 43.4629H108.139V37.0209H112.755C117.696 37.0209 120.993 34.3528 120.993 27.6572C120.993 21.0225 117.878 17.7052 112.603 17.7052C107.531 17.7052 103.899 20.8298 103.899 27.5254V54.4599H97.0714V12.1154H103.899V15.7574H104.873C107.145 12.7038 110.513 11.3342 114.034 11.3342C121.602 11.3342 127.902 16.7921 127.902 27.6572ZM83.0107 24.8674L78.4557 24.4109C74.8746 24.0863 72.9876 23.1124 72.9876 21.0327C72.9876 18.5573 75.392 17.1269 78.8412 17.1269C82.4223 17.1269 84.6948 18.8211 84.8875 21.2254H91.4614C91.1976 15.1081 86.4498 11.3342 78.9021 11.3342C71.2935 11.3342 66.15 15.3719 66.15 21.2863C66.15 26.2268 69.2746 29.4224 76.3659 30.1326L80.9818 30.5891C83.7817 30.8529 85.6687 31.4311 85.6687 34.0992C85.6687 36.5035 83.9136 38.2586 79.2977 38.2586C75.0471 38.2586 72.9471 36.3311 72.2166 33.7441H65.1051C65.8153 39.6586 70.7862 44.244 79.2977 44.244C87.302 44.244 92.5063 40.0136 92.5063 33.7644C92.5063 28.2456 88.8643 25.4457 83.0107 24.8674ZM154.359 33.7441C153.284 36.2093 150.727 38.0658 147.096 38.0658C142.084 38.0658 138.381 34.8093 138.381 27.7891C138.381 21.0834 141.83 17.3805 147.167 17.3805C151.914 17.3805 154.653 20.2414 154.907 24.5326H142.612V29.4732H161.613V26.2167C161.613 17.1776 155.627 11.3139 147.106 11.3139C139.172 11.3139 131.554 16.711 131.554 27.779C131.554 38.8368 139.162 44.244 147.106 44.244C154.369 44.244 159.543 39.7702 161.146 33.7441H154.359ZM46.672 11.3342C39.1851 11.3342 33.5953 15.24 32.946 21.2254H40.301C40.8184 19.0139 42.8372 17.3907 46.6821 17.3907C51.6227 17.3907 53.256 19.9979 53.256 23.1834V33.9065C50.456 37.0919 47.2097 38.5934 43.9532 38.5934C40.5749 38.5934 38.2315 36.9702 38.2315 34.0383C38.2315 31.2384 40.0576 29.4833 43.5677 29.4833H49.0357V24.5428H43.3749C35.5634 24.5428 31.2113 28.4485 31.2113 34.434C31.2113 40.0339 35.4417 44.2542 42.401 44.2542C46.3068 44.2542 49.756 42.6919 52.2922 40.8049H53.2661V43.473H60.0936V22.524C60.0733 14.7835 54.798 11.3342 46.672 11.3342ZM0.320312 43.473H7.14778V0.529999H0.320312V43.473ZM29.0099 12.1154H20.681L10.7289 25.1921V29.2906L20.9447 43.473H29.4055L17.4346 27.2109L29.0099 12.1154ZM275.965 12.1154L270.365 24.5428C268.996 27.5355 267.697 30.4674 267.312 32.4152H266.338C265.952 30.4674 264.583 27.5964 263.213 24.6037L257.613 12.1154H250.065L263.203 40.2875L256.7 54.47H263.984L283.503 12.1154H275.965ZM248.564 12.1154H240.235L230.283 25.1921V29.2906L240.499 43.473H248.96L236.989 27.2109L248.564 12.1154ZM205.793 24.8674L201.238 24.4109C197.657 24.0863 195.77 23.1124 195.77 21.0327C195.77 18.5573 198.175 17.1269 201.624 17.1269C205.205 17.1269 207.478 18.8211 207.67 21.2254H214.244C213.98 15.1081 209.233 11.3342 201.685 11.3342C194.076 11.3342 188.933 15.3719 188.933 21.2863C188.933 26.2268 192.057 29.4224 199.149 30.1326L203.765 30.5891C206.564 30.8529 208.451 31.4311 208.451 34.0992C208.451 36.5035 206.696 38.2586 202.07 38.2586C197.82 38.2586 195.72 36.3311 194.989 33.7441H187.878C188.588 39.6586 193.559 44.244 202.07 44.244C210.075 44.244 215.279 40.0136 215.279 33.7644C215.289 28.2456 211.647 25.4457 205.793 24.8674ZM219.874 43.473H226.702V0.529999H219.874V43.473ZM174.821 15.7574H173.847V12.1154H167.02V43.473H173.847V27.079C173.847 21.479 176.434 18.2327 181.527 18.2327H185.849V11.3342H183.343C178.626 11.3342 176.617 13.1096 174.821 15.7574Z" fill="#D1D1D1"/>
</svg>
