<svg width="78" height="53" viewBox="0 0 78 53" fill="none" xmlns="http://www.w3.org/2000/svg">
<path d="M26.1635 51.2255V19.9193H32.5507V32.2688H45.196V19.9193H51.5756V51.2255H45.196V38.3298H32.5507V51.2255H26.1635ZM56.0056 19.9193H75.3112V25.9803H62.3852V32.1171H72.808V38.1705H62.3852V45.1645H75.3036V51.2179H55.9981V19.9193H56.0056ZM87.1753 25.9803H85.7416V35.341C85.9464 35.3562 86.1512 35.3638 86.356 35.3638H86.3636C89.3827 35.3638 92.6294 34.1349 92.637 30.6303V30.6227V30.6151C92.637 27.5353 90.0047 25.9727 87.1828 25.9727H87.1753V25.9803ZM79.362 51.2255V19.9193H87.1828H87.1904V19.9269C93.5245 19.9269 99.0165 23.9625 99.0241 30.6606V30.6682V30.6758C99.0165 37.4802 93.168 41.4096 86.8491 41.4096V41.4172H86.8415C86.4774 41.4172 86.1133 41.402 85.7491 41.402V51.2255H79.362ZM108.666 25.9803V51.2255H102.278V19.9193H118.527L118.519 25.9727H108.666V25.9803ZM124.595 35.6445V35.652C124.595 38.4815 125.726 41.0682 127.592 42.9571C129.458 44.8383 132.052 46.0217 134.98 46.0217V46.0141H134.988V46.0217C137.886 46.0217 140.48 44.8383 142.354 42.9571C144.227 41.0758 145.373 38.4815 145.373 35.652V35.6445V35.6369C145.373 32.9439 144.333 30.3269 142.52 28.3849C140.708 26.4506 138.113 25.1838 134.988 25.1838V25.1914H134.98H134.973V25.1838C131.832 25.1838 129.23 26.4506 127.433 28.3774C125.62 30.3269 124.595 32.9439 124.595 35.6445ZM118.216 35.6141V35.6065V35.5989C118.216 30.4786 120.408 26.3671 123.602 23.5225C126.78 20.693 130.967 19.138 134.988 19.138H134.995C139.008 19.1456 143.196 20.693 146.374 23.5225C149.568 26.3671 151.76 30.4862 151.76 35.5989V35.6065C151.76 40.4235 149.734 44.5425 146.624 47.463C143.522 50.3683 139.334 52.0751 134.995 52.0751H134.988H134.98C130.641 52.0751 126.454 50.3683 123.359 47.463C120.241 44.55 118.216 40.4234 118.216 35.6141ZM160.734 25.9803V51.2255H154.347V19.9193H171.9L171.885 25.9727H160.734V25.9803ZM185.342 36.183L182.702 30.691L180.032 36.183H185.342ZM188.027 41.9709H177.346L172.84 51.2255H165.968L182.793 17.4995L199.489 51.2255H192.472L188.027 41.9709ZM208.402 25.8892H206.969V35.25C207.173 35.2652 207.378 35.2728 207.583 35.2728H207.598C210.617 35.2728 213.864 34.0439 213.864 30.5469V30.5393V30.5317C213.864 27.4519 211.232 25.8892 208.41 25.8892V25.8968H208.402V25.8892ZM200.581 51.2255V19.8283H208.402H208.41C214.744 19.8283 220.236 23.8715 220.236 30.5696H220.243V30.5772H220.236C220.228 37.3816 214.387 41.311 208.061 41.311V41.3186H208.053C207.689 41.3186 207.325 41.3185 206.961 41.3034V51.2255H200.581ZM235.157 36.183L232.517 30.691L229.847 36.183H235.157ZM237.842 41.9709H227.162L222.656 51.2255H215.791L232.616 17.4995L249.342 51.2255H242.31L237.842 41.9709ZM250.397 51.2255V19.9193H256.784V32.2688H269.429V19.9193H275.816V51.2255H269.429V38.3298H256.784V51.2255H250.397ZM286.118 51.2255V25.9651H279.571L279.541 19.9193H299.082V25.9803L292.505 25.9651V51.2255H286.118ZM0.554237 28.0436L0.539062 28.0132V20.7082C2.75408 19.6311 5.22702 19.1001 7.69237 19.0925H7.70754H7.71513C11.5611 19.0925 15.5436 20.5034 18.5627 23.2646C21.5894 26.0258 23.6527 30.1372 23.6527 35.5079V35.5155V35.5231C23.6527 40.7951 21.6956 44.9293 18.7523 47.7512C15.8091 50.5731 11.8721 52.0751 7.92753 52.0751C5.26495 52.0751 2.80718 51.4682 0.546644 50.3379V43.0557C2.78442 44.7321 5.03738 45.961 7.92753 45.961C12.5245 45.961 16.1125 42.5247 16.9317 38.1857H4.13469V32.2612H16.9014C15.938 27.816 11.9555 25.1383 7.64685 25.1307V25.1383H7.6241C4.74912 25.1534 2.70857 26.2989 0.554237 28.0436Z" fill="#D1D1D1"/>
<path d="M7.82312 9.88363C6.88249 10.3843 5.94946 10.5663 5.06952 10.5663C2.18696 10.5663 0.50293 8.57888 0.50293 5.82528C0.50293 3.09443 2.41452 0.924927 5.27433 0.924927C6.29081 0.924927 7.14041 1.15248 7.64107 1.42556V2.60895C6.96594 2.25242 6.23771 2.00968 5.29708 2.00968C3.15792 2.00968 1.8456 3.70886 1.8456 5.76458C1.8456 7.96443 3.14274 9.47399 5.21364 9.47399C6.10116 9.47399 6.81422 9.21608 7.46659 8.85955L7.82312 9.88363Z" fill="#D1D1D1"/>
<path d="M12.7098 2.10033H9.99414V1.01558H16.9654L16.5785 2.10033H13.9766V10.4294H12.7098V2.10033Z" fill="#D1D1D1"/>
<path d="M19.6914 1.01558H21.6182C22.536 1.01558 23.1732 1.15971 23.6891 1.44038C24.5766 1.92586 25.1 2.81339 25.1 4.0271C25.1 5.11185 24.6297 6.15109 23.4463 6.68209C22.9608 6.89449 22.3464 7.02344 21.5044 7.02344H20.9658V10.4218H19.6914V1.01558ZM21.5954 5.9842C22.1643 5.9842 22.5816 5.88559 22.8774 5.72629C23.4918 5.41528 23.7801 4.83118 23.7801 4.0271C23.7801 3.2837 23.4918 2.68442 22.9381 2.35824C22.6271 2.17618 22.2099 2.06241 21.6106 2.06241H20.9658V5.9842H21.5954Z" fill="#D1D1D1"/>
<path d="M31.0077 0.987823H31.9484L35.6047 10.4244H34.2317L33.3138 7.95149H29.6575L28.7548 10.4244H27.4121L31.0077 0.987823ZM32.9193 6.91984L32.0318 4.46206C31.7587 3.66556 31.6146 3.2332 31.5008 2.89184H31.4705C31.3718 3.2332 31.2125 3.67316 30.9243 4.47725L30.0368 6.91984H32.9193Z" fill="#D1D1D1"/>
<path d="M40.8816 5.70353L37.7866 1.01558H39.2582L41.6857 4.73256L44.242 1.01558H45.6682L42.4291 5.65802L45.5847 10.4294H44.1358L41.625 6.62899L38.9852 10.4294H37.5742L40.8816 5.70353Z" fill="#D1D1D1"/>
<path d="M48.1699 5.75591C48.1699 2.90369 50.127 0.931396 52.8124 0.931396C55.5281 0.931396 57.4396 2.94162 57.4396 5.75591C57.4396 8.68399 55.4446 10.5652 52.8124 10.5652C50.1422 10.5652 48.1699 8.66882 48.1699 5.75591ZM56.097 5.75591C56.097 3.60157 54.8984 2.01617 52.8124 2.01617C50.8249 2.01617 49.5126 3.50296 49.5126 5.75591C49.5126 8.02403 50.8249 9.48049 52.8124 9.48049C54.7771 9.48049 56.097 8.02403 56.097 5.75591Z" fill="#D1D1D1"/>
<path d="M60.9365 1.01558H63.3108C65.3059 1.01558 66.2086 2.13066 66.2086 3.39748C66.2086 4.30776 65.7534 5.06632 64.9949 5.40768V5.43803C66.0645 5.68077 66.8078 6.5683 66.8078 7.72133C66.8078 9.26123 65.6927 10.4218 63.5839 10.4218H60.9441V1.01558H60.9365ZM63.1667 5.09669C64.3273 5.09669 64.9342 4.51258 64.9342 3.57195C64.9342 2.6996 64.4184 2.06998 63.1895 2.06998H62.2033V5.09669H63.1667ZM63.5081 9.36741C64.737 9.36741 65.5031 8.89711 65.5031 7.74409C65.5031 6.77312 64.7749 6.15868 63.6446 6.15868H62.2033V9.36741H63.5081Z" fill="#D1D1D1"/>
<path d="M72.7873 0.987823H73.7279L77.3842 10.4244H76.0112L75.1009 7.95149H71.4446L70.5419 10.4244H69.1992L72.7873 0.987823ZM74.7064 6.91984L73.8189 4.46206C73.5458 3.66556 73.4017 3.2332 73.2879 2.89184H73.2576C73.159 3.2332 72.9997 3.67316 72.7114 4.47725L71.8315 6.91984H74.7064Z" fill="#D1D1D1"/>
</svg>
