<svg width="284" height="55" viewBox="0 0 284 55" fill="none" xmlns="http://www.w3.org/2000/svg">
<path fill-rule="evenodd" clip-rule="evenodd" d="M133.557 32.4167H125.461L129.51 22.0214L133.557 32.4167ZM136.286 39.4206L138.092 44.0656H146.999L133.605 10.9344H125.551L112.154 44.0656H120.924L122.734 39.4206H136.286ZM97.957 44.0683V24.3777L89.262 34.7783L80.5711 24.3777V44.0683H71.8628V10.937H80.4518L89.262 22.3289L98.0749 10.937H106.664V44.0683H97.957ZM152.536 10.937V44.0683H161.247V18.6314H173.425V10.937H152.536ZM201.22 31.0888V44.0683H209.93V10.937H201.22V23.3016H188.285V10.937H179.576V44.0683H188.285V31.0888H201.22ZM264.684 44.0683V18.6314H254.509V10.937H283.614V18.6314H273.394V44.0683H264.684ZM239.674 25.1861V44.0683H248.387V10.937H240.867L227.239 29.6204V10.937H218.527V44.0683H225.812L239.674 25.1861ZM0.716797 16.8424C0.716797 12.6201 2.38264 8.64435 5.41216 5.64399C6.8977 4.16506 8.66006 2.99329 10.5986 2.1956C12.5371 1.39792 14.6137 0.989955 16.7099 0.995011H53.6406V9.04723H16.7099C14.6285 9.04528 12.6314 9.86938 11.1571 11.3386C10.425 12.0562 9.84315 12.9125 9.44563 13.8575C9.04812 14.8025 8.84288 15.8172 8.8419 16.8424L8.79552 30.3586C8.41915 33.9487 5.68781 36.8443 2.15469 37.3784L0.716797 37.5971V16.8424ZM0.716797 54.005V45.9515H37.6475C38.6777 45.9533 39.6981 45.7515 40.6501 45.3579C41.6021 44.9642 42.467 44.3863 43.195 43.6575C43.9293 42.9422 44.5128 42.0869 44.9109 41.1423C45.309 40.1976 45.5137 39.1828 45.5129 38.1577L45.5195 25.3293C45.5195 21.5086 48.3927 18.1954 52.2041 17.6189L53.6406 17.4029V38.1577C53.6406 42.3799 51.9748 46.3543 48.944 49.3534C47.4594 50.8335 45.6975 52.0063 43.7591 52.8045C41.8207 53.6027 39.7439 54.0106 37.6475 54.005H0.716797ZM32.055 37.5971V27.3357L27.1781 32.9508L22.2998 27.3357V37.5971H15.8379V17.4029H21.9592L27.1781 23.8953L32.3956 17.4029H38.5195V37.5971H32.055Z" fill="#D1D1D1"/>
</svg>
