<svg width="160" height="46" viewBox="0 0 160 46" fill="none" xmlns="http://www.w3.org/2000/svg">
<path d="M25.5013 7.46857L20.4312 12.3906C19.8321 12.9723 18.859 12.9723 18.2586 12.3906L17.0372 11.2049C16.8874 11.0594 16.8874 10.8233 17.0372 10.6779L20.3429 7.46857C20.9421 6.88563 20.9421 5.94099 20.3429 5.35929L17.0372 2.14999C16.8874 2.00457 16.8874 1.76841 17.0372 1.62298L18.2586 0.437207C18.859 -0.145736 19.8321 -0.145736 20.4312 0.437207L25.5013 5.35929C26.1017 5.94099 26.1017 6.88563 25.5013 7.46857Z" fill="#6645EA"/>
<path d="M25.5013 24.0551L20.4312 28.9772C19.8321 29.5589 18.859 29.5589 18.2586 28.9772L17.0372 27.7914C16.8874 27.646 16.8874 27.4098 17.0372 27.2644L20.3429 24.0551C20.9421 23.4722 20.9421 22.5275 20.3429 21.9458L17.0372 18.7365C16.8874 18.5911 16.8874 18.355 17.0372 18.2095L18.2586 17.0238C18.859 16.4408 19.8321 16.4408 20.4312 17.0238L25.5013 21.9458C26.1017 22.5275 26.1017 23.4722 25.5013 24.0551Z" fill="#6645EA"/>
<path d="M38.5901 7.46857L33.5201 12.3906C32.9209 12.9723 31.9479 12.9723 31.3474 12.3906L30.126 11.2049C29.9762 11.0594 29.9762 10.8233 30.126 10.6779L33.4318 7.46857C34.031 6.88563 34.031 5.94099 33.4318 5.35929L30.126 2.14999C29.9762 2.00457 29.9762 1.76841 30.126 1.62298L31.3474 0.437207C31.9479 -0.145736 32.9209 -0.145736 33.5201 0.437207L38.5901 5.35929C39.1906 5.94099 39.1906 6.88563 38.5901 7.46857Z" fill="#6645EA"/>
<path d="M5.46833 12.3897L0.446103 7.46803C-0.148701 6.88513 -0.148701 5.9418 0.446103 5.3589L5.46833 0.437176C6.06313 -0.145725 7.02572 -0.145725 7.62053 0.437176L12.6428 5.3589C13.2376 5.9418 13.2376 6.88513 12.6428 7.46803L7.62053 12.3897C7.02699 12.9726 6.06313 12.9726 5.46833 12.3897Z" fill="#6645EA"/>
<path d="M5.46833 28.9763L0.446103 24.0546C-0.148701 23.4717 -0.148701 22.5283 0.446103 21.9454L5.46833 17.0237C6.06313 16.4408 7.02572 16.4408 7.62053 17.0237L12.6428 21.9454C13.2376 22.5283 13.2376 23.4717 12.6428 24.0546L7.62053 28.9763C7.02699 29.5592 6.06313 29.5592 5.46833 28.9763Z" fill="#6645EA"/>
<path d="M5.46833 45.5704L0.446103 40.7335C-0.148701 40.1607 -0.148701 39.2336 0.446103 38.6608L5.46833 33.8239C6.06313 33.2511 7.02572 33.2511 7.62053 33.8239L12.6428 38.6608C13.2376 39.2336 13.2376 40.1607 12.6428 40.7335L7.62053 45.5704C7.02699 46.1433 6.06313 46.1433 5.46833 45.5704Z" fill="#6645EA"/>
<path fill-rule="evenodd" clip-rule="evenodd" d="M142.27 22.5577C141.026 22.5577 140.322 23.8178 141.043 24.7541L146.847 32.2883L139.762 41.47C139.582 41.704 139.757 42.0193 140.069 42.0193L145.139 42.0193C145.268 42.0193 145.39 41.961 145.465 41.8639L149.848 36.184L154.223 41.8636C154.298 41.9609 154.421 42.0192 154.55 42.0192H159.621C159.932 42.0192 160.108 41.7042 159.927 41.4701L152.854 32.2883L158.667 24.7551C159.39 23.8189 158.686 22.5578 157.441 22.5578L155.182 22.5578C154.666 22.5578 154.176 22.7908 153.876 23.1794L149.853 28.3927L145.838 23.1804C145.538 22.7912 145.048 22.5577 144.531 22.5577L142.27 22.5577Z" fill="#1F1F1F"/>
<path d="M110.353 14.2865C110.353 13.4804 111.019 12.8269 111.842 12.8269H113.828C114.65 12.8269 115.317 13.4804 115.317 14.2865V41.6543C115.317 41.8558 115.151 42.0192 114.945 42.0192H110.725C110.519 42.0192 110.353 41.8558 110.353 41.6543V14.2865Z" fill="#1F1F1F"/>
<path fill-rule="evenodd" clip-rule="evenodd" d="M102.767 17.6923H103.019H104.781C105.615 17.6923 106.291 17.0388 106.291 16.2327V14.2865C106.291 13.4804 105.615 12.8269 104.781 12.8269H101.509C101.423 12.8269 101.339 12.8338 101.257 12.8471V12.8269C98.4765 12.8269 96.2226 15.0052 96.2226 17.6923V22.5577H94.7124C93.8783 22.5577 93.2021 23.2112 93.2021 24.0173V25.9634C93.2021 26.6867 93.7464 27.2871 94.4607 27.4029V27.4231H94.7124C95.5465 27.4231 96.2226 28.0766 96.2226 28.8827V29.0043V41.6543C96.2226 41.8558 96.3917 42.0192 96.6002 42.0192H100.879C101.088 42.0192 101.257 41.8558 101.257 41.6543V29.0043V28.8827C101.257 28.0766 101.933 27.4231 102.767 27.4231H103.019H104.781C105.615 27.4231 106.291 26.7696 106.291 25.9634V24.0173C106.291 23.2112 105.615 22.5577 104.781 22.5577H101.257V19.2735V19.1519C101.257 18.3458 101.933 17.6923 102.767 17.6923Z" fill="#1F1F1F"/>
<path d="M83.9492 24.0174C83.9492 23.2112 84.6161 22.5577 85.4386 22.5577H87.4245C88.2471 22.5577 88.914 23.2112 88.914 24.0174V41.6544C88.914 41.8559 88.7473 42.0193 88.5416 42.0193H84.3216C84.1159 42.0193 83.9492 41.8559 83.9492 41.6544V24.0174Z" fill="#1F1F1F"/>
<path d="M85.3666 13.1605C85.9521 12.5867 86.9014 12.5867 87.4869 13.1605L88.4587 14.1129C89.0442 14.6867 89.0442 15.617 88.4587 16.1907L87.4869 17.1431C86.9014 17.7169 85.9521 17.7169 85.3666 17.1431L84.3948 16.1907C83.8093 15.617 83.8093 14.6867 84.3948 14.1129L85.3666 13.1605Z" fill="#6645EA"/>
<path fill-rule="evenodd" clip-rule="evenodd" d="M129.083 37.409C130.934 37.409 132.04 36.885 132.879 36.3182C132.994 36.2407 133.142 36.2281 133.267 36.2892L136.377 37.8133C136.746 37.994 136.898 38.4368 136.651 38.7602C135.369 40.4389 132.512 41.798 129.083 41.798C123.723 41.798 119.379 37.5404 119.379 32.2884C119.379 27.0364 123.723 22.7788 129.083 22.7788C134.442 22.7788 138.787 27.0364 138.787 32.2884C138.787 32.7661 138.751 33.2354 138.681 33.6939C138.655 33.8688 138.499 33.9953 138.319 33.9953H124.14L124.292 34.3367C125.099 36.1447 127.092 37.409 129.083 37.409ZM124.292 30.2401L124.14 30.5816H134.025L133.873 30.2401C133.067 28.4321 131.226 27.1679 129.083 27.1679C126.94 27.1679 125.099 28.4321 124.292 30.2401Z" fill="#1F1F1F"/>
<path fill-rule="evenodd" clip-rule="evenodd" d="M65.5346 12.8269C66.3571 12.8269 67.024 13.4804 67.024 14.2865V16.2327C67.024 17.0388 66.3571 17.6923 65.5346 17.6923H57.0945L53.8674 17.6923H53.6192H53.6189C53.6186 17.6923 53.6184 17.6923 53.6182 17.6923C52.7961 17.6928 52.1298 18.3461 52.1298 19.1519V19.2735V24.9904L60.5698 24.9904C61.3924 24.9904 62.0592 25.6439 62.0592 26.45V28.3961C62.0592 29.2023 61.3924 29.8558 60.5698 29.8558H53.8674H53.6192C52.7966 29.8558 52.1298 30.5092 52.1298 31.3154V31.437V41.6543C52.1298 41.8558 51.9631 42.0192 51.7574 42.0192H47.5374C47.3317 42.0192 47.165 41.8558 47.165 41.6543V28.3961V26.45V17.8139C47.165 17.773 47.1668 17.7324 47.1701 17.6923H47.165C47.165 15.0052 49.3878 12.8269 52.1298 12.8269C52.2376 12.8269 52.3447 12.8303 52.4509 12.8369C52.5084 12.8303 52.5669 12.8269 52.6262 12.8269L65.5346 12.8269Z" fill="#1F1F1F"/>
<path fill-rule="evenodd" clip-rule="evenodd" d="M80.1132 23.7741V26.2068C80.1132 26.8782 79.5594 27.4231 78.877 27.4231H77.1462C77.1462 27.4231 77.1318 27.4228 77.1045 27.4232C74.3898 27.442 72.195 29.6131 72.195 32.2885V33.3832H72.1957C72.1952 33.4235 72.195 33.464 72.195 33.5049V41.6544C72.195 41.8559 72.029 42.0193 71.8241 42.0193H67.6209C67.416 42.0193 67.25 41.8559 67.25 41.6544V25.5986C67.25 23.9188 68.6334 22.5577 70.3406 22.5577H72.195V24.3823C73.4238 22.7317 75.842 22.5577 76.5837 22.5577H78.877C79.5594 22.5577 80.1132 23.1027 80.1132 23.7741Z" fill="#1F1F1F"/>
</svg>
